<?xml version="1.0" encoding="UTF-8"?>
<svg xmlns="http://www.w3.org/2000/svg" xmlns:xlink="http://www.w3.org/1999/xlink" width="288px" height="280.8px" viewBox="0 0 288 280.8" version="1.1" id="Fig:dens">
  <metadata xmlns:gridsvg="http://www.stat.auckland.ac.nz/~paul/R/gridSVG/">
    <gridsvg:generator name="gridSVG" version="1.7-5" time="2024-05-07 17:15:17"/>
    <gridsvg:argument name="name" value="arrayQualityMetrics report for e/dens.svg"/>
    <gridsvg:argument name="exportCoords" value="none"/>
    <gridsvg:argument name="exportMappings" value="none"/>
    <gridsvg:argument name="exportJS" value="none"/>
    <gridsvg:argument name="res" value="72"/>
    <gridsvg:argument name="prefix" value="Fig:dens"/>
    <gridsvg:argument name="addClasses" value="FALSE"/>
    <gridsvg:argument name="indent" value="TRUE"/>
    <gridsvg:argument name="htmlWrapper" value="FALSE"/>
    <gridsvg:argument name="usePaths" value="none"/>
    <gridsvg:argument name="uniqueNames" value="TRUE"/>
    <gridsvg:separator name="id.sep" value="."/>
    <gridsvg:separator name="gPath.sep" value="::"/>
    <gridsvg:separator name="vpPath.sep" value="::"/>
  </metadata>
  <g transform="translate(0, 280.8) scale(1, -1)">
    <g id="Fig:densgridSVG" fill="none" stroke="rgb(0,0,0)" stroke-dasharray="none" stroke-width="0.75" font-size="12" font-family="Helvetica, Arial, FreeSans, Liberation Sans, Nimbus Sans L, sans-serif" opacity="1" stroke-linecap="round" stroke-linejoin="round" stroke-miterlimit="10" stroke-opacity="1" fill-opacity="0" font-weight="normal" font-style="normal">
      <g id="Fig:densplot_01.background.1">
        <rect id="Fig:densplot_01.background.1.1" x="0" y="0" width="288" height="280.8" transform="" fill="none" stroke="none" stroke-opacity="0" fill-opacity="0"/>
      </g>
      <g id="Fig:densplot_01.toplevel.vp.1" font-size="12">
        <g id="Fig:densplot_01.main.vp.1">
          <g id="Fig:densGRID.VP.27.1">
            <g id="Fig:dens.key.frame.1">
              <g id="Fig:densGRID.VP.28.1">
                <g id="Fig:densGRID.cellGrob.105.1">
                  <g id="Fig:dens.key.background.1">
                    <rect id="Fig:dens.key.background.1.1" x="108.31" y="251.81" width="71.38" height="22.99" transform="" fill="none" opacity="1" stroke="none" stroke-opacity="0" fill-opacity="0"/>
                  </g>
                </g>
              </g>
              <g id="Fig:densGRID.VP.29.1">
                <g id="Fig:densGRID.cellGrob.106.1">
                  <g id="Fig:dens.key.rect.1.1.1">
                    <rect id="Fig:dens.key.rect.1.1.1.1" x="114.98" y="263.3" width="33.36" height="11.5" transform="" opacity="1" fill="rgb(228,26,28)" stroke="rgb(0,0,0)" stroke-opacity="1" fill-opacity="1"/>
                  </g>
                </g>
              </g>
              <g id="Fig:densGRID.VP.30.1">
                <g id="Fig:densGRID.cellGrob.107.1">
                  <g id="Fig:dens.key.rect.1.2.1">
                    <rect id="Fig:dens.key.rect.1.2.1.1" x="114.98" y="251.81" width="33.36" height="11.5" transform="" opacity="1" fill="rgb(55,126,184)" stroke="rgb(0,0,0)" stroke-opacity="1" fill-opacity="1"/>
                  </g>
                </g>
              </g>
              <g id="Fig:densGRID.VP.31.1">
                <g id="Fig:densGRID.cellGrob.108.1">
                  <g id="Fig:dens.key.text.2.1.1">
                    <g id="Fig:dens.key.text.2.1.1.1" transform="translate(161.69, 269.05)" stroke-width="0.1">
                      <g id="Fig:dens.key.text.2.1.1.1.scale" transform="scale(1, -1)">
                        <text x="0" y="0" id="Fig:dens.key.text.2.1.1.1.text" text-anchor="start" stroke="rgb(0,0,0)" opacity="1" fill="rgb(0,0,0)" stroke-opacity="1" fill-opacity="1" font-size="12" font-weight="normal" font-style="normal">
                          <tspan id="Fig:dens.key.text.2.1.1.1.tspan.1" dy="4.31" x="0">C</tspan>
                        </text>
                      </g>
                    </g>
                  </g>
                </g>
              </g>
              <g id="Fig:densGRID.VP.32.1">
                <g id="Fig:densGRID.cellGrob.109.1">
                  <g id="Fig:dens.key.text.2.2.1">
                    <g id="Fig:dens.key.text.2.2.1.1" transform="translate(161.69, 257.56)" stroke-width="0.1">
                      <g id="Fig:dens.key.text.2.2.1.1.scale" transform="scale(1, -1)">
                        <text x="0" y="0" id="Fig:dens.key.text.2.2.1.1.text" text-anchor="start" stroke="rgb(0,0,0)" opacity="1" fill="rgb(0,0,0)" stroke-opacity="1" fill-opacity="1" font-size="12" font-weight="normal" font-style="normal">
                          <tspan id="Fig:dens.key.text.2.2.1.1.tspan.1" dy="4.31" x="0">W</tspan>
                        </text>
                      </g>
                    </g>
                  </g>
                </g>
              </g>
            </g>
          </g>
        </g>
        <g id="Fig:densplot_01.ylab.vp.1">
          <g id="Fig:densplot_01.ylab.1">
            <g id="Fig:densplot_01.ylab.1.1" transform="translate(16.31, 144)" stroke-width="0.1">
              <g id="Fig:densplot_01.ylab.1.1.scale" transform="scale(1, -1)">
                <text x="0" y="0" id="Fig:densplot_01.ylab.1.1.text" transform="rotate(-90)" text-anchor="middle" opacity="1" stroke="rgb(0,0,0)" fill="rgb(0,0,0)" stroke-opacity="1" fill-opacity="1" font-size="12" font-weight="normal" font-style="normal">
                  <tspan id="Fig:densplot_01.ylab.1.1.tspan.1" dy="4.31" x="0">Density</tspan>
                </text>
              </g>
            </g>
          </g>
        </g>
        <g id="Fig:densplot_01.figure.vp.1"/>
        <defs>
          <clipPath id="Fig:densplot_01.panel.1.1.vp.1.clipPath">
            <rect x="50.8" y="48.19" width="225.2" height="191.62" fill="none" stroke="none"/>
          </clipPath>
        </defs>
        <g id="Fig:densplot_01.panel.1.1.vp.1" clip-path="url(#Fig:densplot_01.panel.1.1.vp.1.clipPath)"/>
        <g id="Fig:densplot_01.strip.1.1.off.vp.1"/>
        <g id="Fig:densplot_01.strip.left.1.1.off.vp.1">
          <g id="Fig:densplot_01.ticks.left.panel.1.1.1">
            <polyline id="Fig:densplot_01.ticks.left.panel.1.1.1.1" points="50.8,59.94 45.13,59.94" stroke="rgb(0,0,0)" opacity="1" stroke-dasharray="none" stroke-width="0.75" stroke-opacity="1" fill="none"/>
            <polyline id="Fig:densplot_01.ticks.left.panel.1.1.1.2" points="50.8,109.81 45.13,109.81" stroke="rgb(0,0,0)" opacity="1" stroke-dasharray="none" stroke-width="0.75" stroke-opacity="1" fill="none"/>
            <polyline id="Fig:densplot_01.ticks.left.panel.1.1.1.3" points="50.8,159.68 45.13,159.68" stroke="rgb(0,0,0)" opacity="1" stroke-dasharray="none" stroke-width="0.75" stroke-opacity="1" fill="none"/>
            <polyline id="Fig:densplot_01.ticks.left.panel.1.1.1.4" points="50.8,209.55 45.13,209.55" stroke="rgb(0,0,0)" opacity="1" stroke-dasharray="none" stroke-width="0.75" stroke-opacity="1" fill="none"/>
          </g>
          <g id="Fig:densplot_01.ticklabels.left.panel.1.1.1">
            <g id="Fig:densplot_01.ticklabels.left.panel.1.1.1.1" transform="translate(39.47, 59.94)" stroke-width="0.1">
              <g id="Fig:densplot_01.ticklabels.left.panel.1.1.1.1.scale" transform="scale(1, -1)">
                <text x="0" y="0" id="Fig:densplot_01.ticklabels.left.panel.1.1.1.1.text" transform="rotate(-90)" text-anchor="middle" stroke="rgb(0,0,0)" opacity="1" fill="rgb(0,0,0)" stroke-opacity="1" fill-opacity="1" font-size="9.6" font-weight="normal" font-style="normal">
                  <tspan id="Fig:densplot_01.ticklabels.left.panel.1.1.1.1.tspan.1" dy="0" x="0">0.0</tspan>
                </text>
              </g>
            </g>
            <g id="Fig:densplot_01.ticklabels.left.panel.1.1.1.2" transform="translate(39.47, 109.81)" stroke-width="0.1">
              <g id="Fig:densplot_01.ticklabels.left.panel.1.1.1.2.scale" transform="scale(1, -1)">
                <text x="0" y="0" id="Fig:densplot_01.ticklabels.left.panel.1.1.1.2.text" transform="rotate(-90)" text-anchor="middle" stroke="rgb(0,0,0)" opacity="1" fill="rgb(0,0,0)" stroke-opacity="1" fill-opacity="1" font-size="9.6" font-weight="normal" font-style="normal">
                  <tspan id="Fig:densplot_01.ticklabels.left.panel.1.1.1.2.tspan.1" dy="0" x="0">0.1</tspan>
                </text>
              </g>
            </g>
            <g id="Fig:densplot_01.ticklabels.left.panel.1.1.1.3" transform="translate(39.47, 159.68)" stroke-width="0.1">
              <g id="Fig:densplot_01.ticklabels.left.panel.1.1.1.3.scale" transform="scale(1, -1)">
                <text x="0" y="0" id="Fig:densplot_01.ticklabels.left.panel.1.1.1.3.text" transform="rotate(-90)" text-anchor="middle" stroke="rgb(0,0,0)" opacity="1" fill="rgb(0,0,0)" stroke-opacity="1" fill-opacity="1" font-size="9.6" font-weight="normal" font-style="normal">
                  <tspan id="Fig:densplot_01.ticklabels.left.panel.1.1.1.3.tspan.1" dy="0" x="0">0.2</tspan>
                </text>
              </g>
            </g>
            <g id="Fig:densplot_01.ticklabels.left.panel.1.1.1.4" transform="translate(39.47, 209.55)" stroke-width="0.1">
              <g id="Fig:densplot_01.ticklabels.left.panel.1.1.1.4.scale" transform="scale(1, -1)">
                <text x="0" y="0" id="Fig:densplot_01.ticklabels.left.panel.1.1.1.4.text" transform="rotate(-90)" text-anchor="middle" stroke="rgb(0,0,0)" opacity="1" fill="rgb(0,0,0)" stroke-opacity="1" fill-opacity="1" font-size="9.6" font-weight="normal" font-style="normal">
                  <tspan id="Fig:densplot_01.ticklabels.left.panel.1.1.1.4.tspan.1" dy="0" x="0">0.3</tspan>
                </text>
              </g>
            </g>
          </g>
        </g>
        <g id="Fig:densplot_01.panel.1.1.off.vp.1">
          <g id="Fig:densplot_01.ticks.bottom.panel.1.1.1">
            <polyline id="Fig:densplot_01.ticks.bottom.panel.1.1.1.1" points="67.36,48.19 67.36,42.52" stroke="rgb(0,0,0)" opacity="1" stroke-dasharray="none" stroke-width="0.75" stroke-opacity="1" fill="none"/>
            <polyline id="Fig:densplot_01.ticks.bottom.panel.1.1.1.2" points="119.99,48.19 119.99,42.52" stroke="rgb(0,0,0)" opacity="1" stroke-dasharray="none" stroke-width="0.75" stroke-opacity="1" fill="none"/>
            <polyline id="Fig:densplot_01.ticks.bottom.panel.1.1.1.3" points="172.61,48.19 172.61,42.52" stroke="rgb(0,0,0)" opacity="1" stroke-dasharray="none" stroke-width="0.75" stroke-opacity="1" fill="none"/>
            <polyline id="Fig:densplot_01.ticks.bottom.panel.1.1.1.4" points="225.24,48.19 225.24,42.52" stroke="rgb(0,0,0)" opacity="1" stroke-dasharray="none" stroke-width="0.75" stroke-opacity="1" fill="none"/>
          </g>
          <g id="Fig:densplot_01.ticklabels.bottom.panel.1.1.1">
            <g id="Fig:densplot_01.ticklabels.bottom.panel.1.1.1.1" transform="translate(67.36, 36.85)" stroke-width="0.1">
              <g id="Fig:densplot_01.ticklabels.bottom.panel.1.1.1.1.scale" transform="scale(1, -1)">
                <text x="0" y="0" id="Fig:densplot_01.ticklabels.bottom.panel.1.1.1.1.text" text-anchor="middle" stroke="rgb(0,0,0)" opacity="1" fill="rgb(0,0,0)" stroke-opacity="1" fill-opacity="1" font-size="9.6" font-weight="normal" font-style="normal">
                  <tspan id="Fig:densplot_01.ticklabels.bottom.panel.1.1.1.1.tspan.1" dy="7.18" x="0">6</tspan>
                </text>
              </g>
            </g>
            <g id="Fig:densplot_01.ticklabels.bottom.panel.1.1.1.2" transform="translate(119.99, 36.85)" stroke-width="0.1">
              <g id="Fig:densplot_01.ticklabels.bottom.panel.1.1.1.2.scale" transform="scale(1, -1)">
                <text x="0" y="0" id="Fig:densplot_01.ticklabels.bottom.panel.1.1.1.2.text" text-anchor="middle" stroke="rgb(0,0,0)" opacity="1" fill="rgb(0,0,0)" stroke-opacity="1" fill-opacity="1" font-size="9.6" font-weight="normal" font-style="normal">
                  <tspan id="Fig:densplot_01.ticklabels.bottom.panel.1.1.1.2.tspan.1" dy="7.18" x="0">8</tspan>
                </text>
              </g>
            </g>
            <g id="Fig:densplot_01.ticklabels.bottom.panel.1.1.1.3" transform="translate(172.61, 36.85)" stroke-width="0.1">
              <g id="Fig:densplot_01.ticklabels.bottom.panel.1.1.1.3.scale" transform="scale(1, -1)">
                <text x="0" y="0" id="Fig:densplot_01.ticklabels.bottom.panel.1.1.1.3.text" text-anchor="middle" stroke="rgb(0,0,0)" opacity="1" fill="rgb(0,0,0)" stroke-opacity="1" fill-opacity="1" font-size="9.6" font-weight="normal" font-style="normal">
                  <tspan id="Fig:densplot_01.ticklabels.bottom.panel.1.1.1.3.tspan.1" dy="7.18" x="0">10</tspan>
                </text>
              </g>
            </g>
            <g id="Fig:densplot_01.ticklabels.bottom.panel.1.1.1.4" transform="translate(225.24, 36.85)" stroke-width="0.1">
              <g id="Fig:densplot_01.ticklabels.bottom.panel.1.1.1.4.scale" transform="scale(1, -1)">
                <text x="0" y="0" id="Fig:densplot_01.ticklabels.bottom.panel.1.1.1.4.text" text-anchor="middle" stroke="rgb(0,0,0)" opacity="1" fill="rgb(0,0,0)" stroke-opacity="1" fill-opacity="1" font-size="9.6" font-weight="normal" font-style="normal">
                  <tspan id="Fig:densplot_01.ticklabels.bottom.panel.1.1.1.4.tspan.1" dy="7.18" x="0">12</tspan>
                </text>
              </g>
            </g>
          </g>
        </g>
        <defs>
          <clipPath id="Fig:densplot_01.panel.1.1.vp.2.clipPath">
            <rect x="50.8" y="48.19" width="225.2" height="191.62" fill="none" stroke="none"/>
          </clipPath>
        </defs>
        <g id="Fig:densplot_01.panel.1.1.vp.2" clip-path="url(#Fig:densplot_01.panel.1.1.vp.2.clipPath)">
          <g id="Fig:densplot_01.xyplot.lines.group.1.panel.1.1.1">
            <polyline id="Fig:densplot_01.xyplot.lines.group.1.panel.1.1.1.1" points="64.63,60 65.02,60.02 65.4,60.04 65.79,60.07 66.18,60.1 66.56,60.14 66.95,60.19 67.33,60.25 67.72,60.32 68.1,60.42 68.49,60.52 68.88,60.65 69.26,60.8 69.65,60.99 70.03,61.2 70.42,61.46 70.81,61.75 71.19,62.08 71.58,62.46 71.96,62.91 72.35,63.42 72.73,63.99 73.12,64.64 73.51,65.36 73.89,66.16 74.28,67.06 74.66,68.06 75.05,69.16 75.44,70.36 75.82,71.67 76.21,73.09 76.59,74.63 76.98,76.31 77.36,78.11 77.75,80.04 78.14,82.09 78.52,84.26 78.91,86.57 79.29,89.03 79.68,91.61 80.07,94.31 80.45,97.13 80.84,100.07 81.22,103.12 81.61,106.29 82,109.56 82.38,112.92 82.77,116.36 83.15,119.88 83.54,123.46 83.92,127.1 84.31,130.79 84.7,134.51 85.08,138.24 85.47,141.99 85.85,145.73 86.24,149.46 86.63,153.15 87.01,156.81 87.4,160.41 87.78,163.95 88.17,167.43 88.55,170.82 88.94,174.1 89.33,177.29 89.71,180.37 90.1,183.35 90.48,186.2 90.87,188.94 91.26,191.53 91.64,194 92.03,196.34 92.41,198.55 92.8,200.64 93.18,202.61 93.57,204.43 93.96,206.13 94.34,207.71 94.73,209.18 95.11,210.54 95.5,211.8 95.89,212.94 96.27,213.98 96.66,214.92 97.04,215.78 97.43,216.55 97.82,217.25 98.2,217.86 98.59,218.39 98.97,218.85 99.36,219.24 99.74,219.58 100.13,219.86 100.52,220.08 100.9,220.24 101.29,220.35 101.67,220.42 102.06,220.45 102.45,220.43 102.83,220.38 103.22,220.29 103.6,220.17 103.99,220.02 104.37,219.84 104.76,219.64 105.15,219.41 105.53,219.17 105.92,218.91 106.3,218.63 106.69,218.34 107.08,218.04 107.46,217.74 107.85,217.42 108.23,217.11 108.62,216.78 109,216.46 109.39,216.14 109.78,215.81 110.16,215.49 110.55,215.16 110.93,214.84 111.32,214.51 111.71,214.18 112.09,213.85 112.48,213.51 112.86,213.17 113.25,212.83 113.64,212.47 114.02,212.11 114.41,211.74 114.79,211.36 115.18,210.96 115.56,210.56 115.95,210.15 116.34,209.72 116.72,209.29 117.11,208.85 117.49,208.4 117.88,207.95 118.27,207.49 118.65,207.04 119.04,206.59 119.42,206.14 119.81,205.7 120.19,205.26 120.58,204.85 120.97,204.44 121.35,204.05 121.74,203.68 122.12,203.32 122.51,202.99 122.9,202.67 123.28,202.37 123.67,202.08 124.05,201.8 124.44,201.54 124.82,201.29 125.21,201.03 125.6,200.78 125.98,200.53 126.37,200.27 126.75,200 127.14,199.71 127.53,199.4 127.91,199.07 128.3,198.72 128.68,198.34 129.07,197.93 129.46,197.5 129.84,197.03 130.23,196.52 130.61,195.99 131,195.42 131.38,194.83 131.77,194.21 132.16,193.56 132.54,192.88 132.93,192.18 133.31,191.45 133.7,190.71 134.09,189.95 134.47,189.17 134.86,188.38 135.24,187.57 135.63,186.76 136.01,185.93 136.4,185.1 136.79,184.26 137.17,183.42 137.56,182.58 137.94,181.73 138.33,180.88 138.72,180.04 139.1,179.19 139.49,178.35 139.87,177.51 140.26,176.68 140.64,175.84 141.03,175.02 141.42,174.2 141.8,173.38 142.19,172.58 142.57,171.78 142.96,170.99 143.35,170.2 143.73,169.43 144.12,168.66 144.5,167.9 144.89,167.15 145.28,166.4 145.66,165.67 146.05,164.94 146.43,164.22 146.82,163.5 147.2,162.79 147.59,162.08 147.98,161.38 148.36,160.68 148.75,159.98 149.13,159.28 149.52,158.58 149.91,157.88 150.29,157.18 150.68,156.47 151.06,155.76 151.45,155.05 151.83,154.34 152.22,153.61 152.61,152.89 152.99,152.16 153.38,151.42 153.76,150.68 154.15,149.93 154.54,149.17 154.92,148.42 155.31,147.65 155.69,146.89 156.08,146.12 156.46,145.35 156.85,144.57 157.24,143.8 157.62,143.03 158.01,142.25 158.39,141.49 158.78,140.73 159.17,139.97 159.55,139.23 159.94,138.49 160.32,137.77 160.71,137.07 161.1,136.38 161.48,135.71 161.87,135.07 162.25,134.44 162.64,133.84 163.02,133.25 163.41,132.7 163.8,132.16 164.18,131.65 164.57,131.16 164.95,130.68 165.34,130.22 165.73,129.78 166.11,129.34 166.5,128.91 166.88,128.49 167.27,128.07 167.65,127.64 168.04,127.22 168.43,126.78 168.81,126.34 169.2,125.88 169.58,125.41 169.97,124.93 170.36,124.44 170.74,123.93 171.13,123.41 171.51,122.89 171.9,122.36 172.28,121.82 172.67,121.28 173.06,120.74 173.44,120.2 173.83,119.67 174.21,119.16 174.6,118.65 174.99,118.16 175.37,117.69 175.76,117.24 176.14,116.81 176.53,116.41 176.92,116.02 177.3,115.65 177.69,115.3 178.07,114.98 178.46,114.67 178.84,114.37 179.23,114.08 179.62,113.81 180,113.53 180.39,113.26 180.77,112.99 181.16,112.71 181.55,112.42 181.93,112.12 182.32,111.81 182.7,111.48 183.09,111.13 183.47,110.76 183.86,110.38 184.25,109.97 184.63,109.55 185.02,109.1 185.4,108.63 185.79,108.15 186.18,107.64 186.56,107.12 186.95,106.59 187.33,106.05 187.72,105.5 188.1,104.93 188.49,104.37 188.88,103.8 189.26,103.22 189.65,102.65 190.03,102.08 190.42,101.52 190.81,100.96 191.19,100.41 191.58,99.86 191.96,99.33 192.35,98.8 192.74,98.29 193.12,97.79 193.51,97.3 193.89,96.82 194.28,96.36 194.66,95.9 195.05,95.47 195.44,95.04 195.82,94.63 196.21,94.23 196.59,93.85 196.98,93.47 197.37,93.11 197.75,92.76 198.14,92.43 198.52,92.1 198.91,91.79 199.29,91.48 199.68,91.18 200.07,90.9 200.45,90.62 200.84,90.35 201.22,90.08 201.61,89.83 202,89.58 202.38,89.33 202.77,89.09 203.15,88.85 203.54,88.62 203.92,88.39 204.31,88.16 204.7,87.94 205.08,87.72 205.47,87.5 205.85,87.28 206.24,87.05 206.63,86.83 207.01,86.61 207.4,86.38 207.78,86.16 208.17,85.93 208.56,85.7 208.94,85.46 209.33,85.22 209.71,84.98 210.1,84.73 210.48,84.48 210.87,84.22 211.26,83.96 211.64,83.7 212.03,83.44 212.41,83.18 212.8,82.91 213.19,82.65 213.57,82.38 213.96,82.12 214.34,81.86 214.73,81.61 215.11,81.36 215.5,81.12 215.89,80.88 216.27,80.65 216.66,80.43 217.04,80.21 217.43,80.01 217.82,79.81 218.2,79.62 218.59,79.44 218.97,79.26 219.36,79.09 219.74,78.93 220.13,78.77 220.52,78.62 220.9,78.47 221.29,78.32 221.67,78.17 222.06,78.02 222.45,77.87 222.83,77.72 223.22,77.57 223.6,77.41 223.99,77.25 224.38,77.09 224.76,76.92 225.15,76.76 225.53,76.59 225.92,76.42 226.3,76.24 226.69,76.07 227.08,75.9 227.46,75.73 227.85,75.56 228.23,75.39 228.62,75.23 229.01,75.07 229.39,74.91 229.78,74.76 230.16,74.62 230.55,74.48 230.93,74.35 231.32,74.22 231.71,74.09 232.09,73.98 232.48,73.86 232.86,73.75 233.25,73.64 233.64,73.53 234.02,73.43 234.41,73.32 234.79,73.21 235.18,73.1 235.56,72.99 235.95,72.88 236.34,72.76 236.72,72.63 237.11,72.5 237.49,72.36 237.88,72.22 238.27,72.06 238.65,71.89 239.04,71.71 239.42,71.53 239.81,71.33 240.2,71.12 240.58,70.89 240.97,70.65 241.35,70.4 241.74,70.14 242.12,69.86 242.51,69.57 242.9,69.27 243.28,68.95 243.67,68.62 244.05,68.29 244.44,67.94 244.83,67.59 245.21,67.23 245.6,66.86 245.98,66.49 246.37,66.12 246.75,65.75 247.14,65.38 247.53,65.02 247.91,64.66 248.3,64.31 248.68,63.97 249.07,63.64 249.46,63.32 249.84,63.02 250.23,62.73 250.61,62.45 251,62.2 251.38,61.96 251.77,61.73 252.16,61.52 252.54,61.33 252.93,61.16 253.31,61.01 253.7,60.86 254.09,60.74 254.47,60.62 254.86,60.52 255.24,60.43 255.63,60.36 256.02,60.29 256.4,60.23 256.79,60.18 257.17,60.14 257.56,60.11 257.94,60.08 258.33,60.05 258.72,60.03 259.1,60.01 259.49,60 259.87,59.99 260.26,59.98 260.65,59.97 261.03,59.97 261.42,59.96 261.8,59.96" stroke-dasharray="none" stroke="rgb(228,26,28)" stroke-width="0.75" opacity="1" stroke-opacity="1" fill="none"/>
          </g>
          <g id="Fig:densplot_01.xyplot.lines.group.2.panel.1.1.1">
            <polyline id="Fig:densplot_01.xyplot.lines.group.2.panel.1.1.1.1" points="64.87,59.99 65.25,60 65.64,60.02 66.02,60.04 66.41,60.07 66.8,60.1 67.18,60.14 67.57,60.19 67.95,60.26 68.34,60.33 68.72,60.42 69.11,60.54 69.49,60.67 69.88,60.82 70.27,61.01 70.65,61.22 71.04,61.48 71.42,61.77 71.81,62.11 72.19,62.5 72.58,62.94 72.97,63.44 73.35,64.02 73.74,64.67 74.12,65.4 74.51,66.2 74.89,67.1 75.28,68.08 75.67,69.18 76.05,70.39 76.44,71.72 76.82,73.15 77.21,74.71 77.59,76.39 77.98,78.21 78.36,80.19 78.75,82.3 79.14,84.55 79.52,86.95 79.91,89.49 80.29,92.17 80.68,95.03 81.06,98.03 81.45,101.18 81.84,104.46 82.22,107.87 82.61,111.41 82.99,115.08 83.38,118.87 83.76,122.75 84.15,126.72 84.54,130.75 84.92,134.84 85.31,138.98 85.69,143.13 86.08,147.29 86.46,151.44 86.85,155.55 87.23,159.61 87.62,163.61 88.01,167.51 88.39,171.3 88.78,174.98 89.16,178.53 89.55,181.95 89.93,185.21 90.32,188.3 90.71,191.22 91.09,193.96 91.48,196.54 91.86,198.95 92.25,201.19 92.63,203.26 93.02,205.14 93.41,206.87 93.79,208.45 94.18,209.88 94.56,211.19 94.95,212.36 95.33,213.39 95.72,214.31 96.1,215.13 96.49,215.86 96.88,216.49 97.26,217.05 97.65,217.52 98.03,217.92 98.42,218.26 98.8,218.55 99.19,218.78 99.58,218.96 99.96,219.1 100.35,219.18 100.73,219.24 101.12,219.25 101.5,219.23 101.89,219.19 102.28,219.12 102.66,219.01 103.05,218.89 103.43,218.75 103.82,218.59 104.2,218.42 104.59,218.23 104.97,218.04 105.36,217.84 105.75,217.64 106.13,217.44 106.52,217.25 106.9,217.05 107.29,216.86 107.67,216.69 108.06,216.52 108.45,216.36 108.83,216.21 109.22,216.08 109.6,215.96 109.99,215.85 110.37,215.74 110.76,215.65 111.14,215.56 111.53,215.47 111.92,215.39 112.3,215.3 112.69,215.21 113.07,215.1 113.46,214.99 113.84,214.86 114.23,214.71 114.62,214.54 115,214.34 115.39,214.11 115.77,213.86 116.16,213.58 116.54,213.27 116.93,212.93 117.32,212.56 117.7,212.17 118.09,211.75 118.47,211.31 118.86,210.86 119.24,210.39 119.63,209.91 120.01,209.42 120.4,208.93 120.79,208.44 121.17,207.96 121.56,207.48 121.94,207.01 122.33,206.55 122.71,206.11 123.1,205.68 123.49,205.26 123.87,204.86 124.26,204.48 124.64,204.11 125.03,203.75 125.41,203.39 125.8,203.05 126.19,202.71 126.57,202.38 126.96,202.04 127.34,201.7 127.73,201.36 128.11,201.01 128.5,200.65 128.88,200.28 129.27,199.9 129.66,199.5 130.04,199.09 130.43,198.65 130.81,198.2 131.2,197.72 131.58,197.23 131.97,196.71 132.36,196.16 132.74,195.59 133.13,195 133.51,194.38 133.9,193.74 134.28,193.08 134.67,192.39 135.06,191.68 135.44,190.95 135.83,190.2 136.21,189.44 136.6,188.65 136.98,187.85 137.37,187.04 137.75,186.22 138.14,185.38 138.53,184.54 138.91,183.69 139.3,182.84 139.68,181.98 140.07,181.11 140.45,180.25 140.84,179.38 141.23,178.5 141.61,177.63 142,176.75 142.38,175.87 142.77,174.98 143.15,174.1 143.54,173.2 143.93,172.31 144.31,171.41 144.7,170.5 145.08,169.6 145.47,168.69 145.85,167.77 146.24,166.85 146.62,165.93 147.01,165.01 147.4,164.09 147.78,163.17 148.17,162.25 148.55,161.33 148.94,160.42 149.32,159.5 149.71,158.6 150.1,157.7 150.48,156.8 150.87,155.92 151.25,155.04 151.64,154.17 152.02,153.3 152.41,152.45 152.8,151.6 153.18,150.76 153.57,149.93 153.95,149.11 154.34,148.29 154.72,147.49 155.11,146.69 155.49,145.89 155.88,145.11 156.27,144.33 156.65,143.55 157.04,142.79 157.42,142.03 157.81,141.27 158.19,140.53 158.58,139.79 158.97,139.07 159.35,138.35 159.74,137.64 160.12,136.95 160.51,136.27 160.89,135.6 161.28,134.95 161.67,134.32 162.05,133.71 162.44,133.11 162.82,132.53 163.21,131.97 163.59,131.44 163.98,130.92 164.36,130.43 164.75,129.95 165.14,129.49 165.52,129.05 165.91,128.63 166.29,128.22 166.68,127.82 167.06,127.44 167.45,127.06 167.84,126.68 168.22,126.31 168.61,125.94 168.99,125.57 169.38,125.19 169.76,124.81 170.15,124.43 170.54,124.03 170.92,123.62 171.31,123.21 171.69,122.78 172.08,122.34 172.46,121.89 172.85,121.43 173.23,120.96 173.62,120.48 174.01,120 174.39,119.51 174.78,119.01 175.16,118.51 175.55,118.01 175.93,117.51 176.32,117.01 176.71,116.51 177.09,116.01 177.48,115.52 177.86,115.03 178.25,114.54 178.63,114.05 179.02,113.57 179.41,113.09 179.79,112.62 180.18,112.14 180.56,111.67 180.95,111.2 181.33,110.73 181.72,110.27 182.1,109.8 182.49,109.33 182.88,108.86 183.26,108.4 183.65,107.93 184.03,107.46 184.42,106.99 184.8,106.51 185.19,106.04 185.58,105.56 185.96,105.09 186.35,104.61 186.73,104.12 187.12,103.64 187.5,103.16 187.89,102.67 188.27,102.19 188.66,101.7 189.05,101.21 189.43,100.73 189.82,100.24 190.2,99.76 190.59,99.28 190.97,98.8 191.36,98.32 191.75,97.85 192.13,97.39 192.52,96.93 192.9,96.47 193.29,96.03 193.67,95.59 194.06,95.15 194.45,94.73 194.83,94.31 195.22,93.9 195.6,93.5 195.99,93.1 196.37,92.72 196.76,92.35 197.14,91.98 197.53,91.62 197.92,91.28 198.3,90.95 198.69,90.63 199.07,90.32 199.46,90.02 199.84,89.74 200.23,89.47 200.62,89.21 201,88.97 201.39,88.74 201.77,88.52 202.16,88.31 202.54,88.11 202.93,87.93 203.32,87.75 203.7,87.59 204.09,87.43 204.47,87.27 204.86,87.12 205.24,86.98 205.63,86.83 206.01,86.69 206.4,86.55 206.79,86.4 207.17,86.26 207.56,86.11 207.94,85.95 208.33,85.79 208.71,85.62 209.1,85.44 209.49,85.26 209.87,85.06 210.26,84.86 210.64,84.65 211.03,84.43 211.41,84.2 211.8,83.97 212.19,83.72 212.57,83.47 212.96,83.21 213.34,82.95 213.73,82.68 214.11,82.4 214.5,82.13 214.88,81.85 215.27,81.57 215.66,81.29 216.04,81.01 216.43,80.73 216.81,80.46 217.2,80.19 217.58,79.92 217.97,79.66 218.36,79.4 218.74,79.14 219.13,78.89 219.51,78.65 219.9,78.41 220.28,78.18 220.67,77.95 221.06,77.73 221.44,77.51 221.83,77.3 222.21,77.1 222.6,76.9 222.98,76.7 223.37,76.51 223.75,76.33 224.14,76.14 224.53,75.97 224.91,75.79 225.3,75.62 225.68,75.45 226.07,75.29 226.45,75.13 226.84,74.97 227.23,74.81 227.61,74.65 228,74.5 228.38,74.34 228.77,74.19 229.15,74.03 229.54,73.88 229.93,73.73 230.31,73.58 230.7,73.43 231.08,73.28 231.47,73.13 231.85,72.98 232.24,72.83 232.62,72.68 233.01,72.52 233.4,72.37 233.78,72.22 234.17,72.07 234.55,71.92 234.94,71.77 235.32,71.61 235.71,71.46 236.1,71.3 236.48,71.14 236.87,70.98 237.25,70.82 237.64,70.65 238.02,70.48 238.41,70.3 238.8,70.13 239.18,69.94 239.57,69.76 239.95,69.56 240.34,69.37 240.72,69.16 241.11,68.95 241.49,68.74 241.88,68.51 242.27,68.28 242.65,68.05 243.04,67.8 243.42,67.55 243.81,67.29 244.19,67.03 244.58,66.76 244.97,66.48 245.35,66.2 245.74,65.91 246.12,65.62 246.51,65.33 246.89,65.04 247.28,64.74 247.67,64.45 248.05,64.16 248.44,63.87 248.82,63.58 249.21,63.31 249.59,63.04 249.98,62.78 250.36,62.53 250.75,62.29 251.14,62.06 251.52,61.85 251.91,61.64 252.29,61.46 252.68,61.28 253.06,61.12 253.45,60.97 253.84,60.84 254.22,60.72 254.61,60.61 254.99,60.52 255.38,60.43 255.76,60.36 256.15,60.29 256.54,60.23 256.92,60.19 257.31,60.14 257.69,60.11 258.08,60.08 258.46,60.05 258.85,60.03 259.23,60.01 259.62,60 260.01,59.99 260.39,59.98 260.78,59.97 261.16,59.97 261.55,59.96 261.93,59.96" stroke-dasharray="none" stroke="rgb(228,26,28)" stroke-width="0.75" opacity="1" stroke-opacity="1" fill="none"/>
          </g>
          <g id="Fig:densplot_01.xyplot.lines.group.3.panel.1.1.1">
            <polyline id="Fig:densplot_01.xyplot.lines.group.3.panel.1.1.1.1" points="66.21,59.98 66.6,59.99 66.98,60.01 67.36,60.02 67.74,60.05 68.13,60.08 68.51,60.11 68.89,60.16 69.28,60.21 69.66,60.28 70.04,60.36 70.42,60.46 70.81,60.58 71.19,60.73 71.57,60.9 71.96,61.1 72.34,61.33 72.72,61.61 73.1,61.94 73.49,62.32 73.87,62.75 74.25,63.24 74.64,63.8 75.02,64.44 75.4,65.17 75.79,65.98 76.17,66.89 76.55,67.89 76.93,69 77.32,70.23 77.7,71.6 78.08,73.08 78.47,74.7 78.85,76.45 79.23,78.33 79.61,80.36 80,82.55 80.38,84.9 80.76,87.39 81.15,90.03 81.53,92.81 81.91,95.74 82.29,98.84 82.68,102.09 83.06,105.47 83.44,108.98 83.83,112.62 84.21,116.37 84.59,120.24 84.98,124.23 85.36,128.29 85.74,132.43 86.12,136.63 86.51,140.88 86.89,145.17 87.27,149.47 87.66,153.78 88.04,158.07 88.42,162.33 88.8,166.54 89.19,170.69 89.57,174.75 89.95,178.71 90.34,182.57 90.72,186.3 91.1,189.91 91.48,193.37 91.87,196.67 92.25,199.79 92.63,202.75 93.02,205.54 93.4,208.15 93.78,210.6 94.16,212.86 94.55,214.92 94.93,216.81 95.31,218.53 95.7,220.09 96.08,221.5 96.46,222.75 96.85,223.83 97.23,224.77 97.61,225.57 97.99,226.26 98.38,226.82 98.76,227.28 99.14,227.61 99.53,227.84 99.91,227.98 100.29,228.04 100.67,228.02 101.06,227.93 101.44,227.76 101.82,227.52 102.21,227.23 102.59,226.89 102.97,226.49 103.35,226.06 103.74,225.59 104.12,225.07 104.5,224.53 104.89,223.97 105.27,223.38 105.65,222.78 106.04,222.17 106.42,221.55 106.8,220.93 107.18,220.3 107.57,219.69 107.95,219.08 108.33,218.48 108.72,217.91 109.1,217.35 109.48,216.82 109.86,216.32 110.25,215.84 110.63,215.39 111.01,214.98 111.4,214.6 111.78,214.26 112.16,213.96 112.54,213.68 112.93,213.44 113.31,213.23 113.69,213.05 114.08,212.9 114.46,212.77 114.84,212.66 115.23,212.56 115.61,212.47 115.99,212.39 116.37,212.31 116.76,212.22 117.14,212.13 117.52,212.03 117.91,211.92 118.29,211.78 118.67,211.63 119.05,211.46 119.44,211.27 119.82,211.05 120.2,210.82 120.59,210.56 120.97,210.28 121.35,209.99 121.73,209.68 122.12,209.35 122.5,209.01 122.88,208.66 123.27,208.3 123.65,207.93 124.03,207.55 124.42,207.17 124.8,206.77 125.18,206.37 125.56,205.96 125.95,205.53 126.33,205.09 126.71,204.64 127.1,204.17 127.48,203.68 127.86,203.17 128.24,202.63 128.63,202.06 129.01,201.47 129.39,200.85 129.78,200.21 130.16,199.54 130.54,198.84 130.92,198.11 131.31,197.37 131.69,196.6 132.07,195.81 132.46,195.01 132.84,194.19 133.22,193.36 133.6,192.53 133.99,191.69 134.37,190.85 134.75,190.01 135.14,189.17 135.52,188.34 135.9,187.52 136.29,186.71 136.67,185.91 137.05,185.11 137.43,184.33 137.82,183.56 138.2,182.8 138.58,182.04 138.97,181.3 139.35,180.56 139.73,179.82 140.11,179.09 140.5,178.36 140.88,177.62 141.26,176.89 141.65,176.14 142.03,175.39 142.41,174.63 142.79,173.86 143.18,173.08 143.56,172.28 143.94,171.47 144.33,170.64 144.71,169.8 145.09,168.95 145.48,168.08 145.86,167.21 146.24,166.33 146.62,165.44 147.01,164.54 147.39,163.64 147.77,162.74 148.16,161.85 148.54,160.96 148.92,160.08 149.3,159.2 149.69,158.34 150.07,157.49 150.45,156.65 150.84,155.82 151.22,155.01 151.6,154.2 151.98,153.41 152.37,152.64 152.75,151.87 153.13,151.11 153.52,150.36 153.9,149.61 154.28,148.86 154.67,148.11 155.05,147.36 155.43,146.61 155.81,145.86 156.2,145.1 156.58,144.34 156.96,143.58 157.35,142.81 157.73,142.03 158.11,141.26 158.49,140.49 158.88,139.72 159.26,138.95 159.64,138.2 160.03,137.45 160.41,136.72 160.79,136 161.17,135.29 161.56,134.61 161.94,133.95 162.32,133.31 162.71,132.69 163.09,132.09 163.47,131.52 163.86,130.97 164.24,130.44 164.62,129.93 165,129.44 165.39,128.97 165.77,128.51 166.15,128.07 166.54,127.64 166.92,127.22 167.3,126.81 167.68,126.4 168.07,126 168.45,125.61 168.83,125.21 169.22,124.82 169.6,124.44 169.98,124.05 170.36,123.66 170.75,123.27 171.13,122.88 171.51,122.49 171.9,122.1 172.28,121.71 172.66,121.31 173.04,120.91 173.43,120.52 173.81,120.11 174.19,119.71 174.58,119.3 174.96,118.89 175.34,118.48 175.73,118.07 176.11,117.65 176.49,117.23 176.87,116.81 177.26,116.38 177.64,115.95 178.02,115.52 178.41,115.09 178.79,114.65 179.17,114.21 179.55,113.78 179.94,113.34 180.32,112.9 180.7,112.45 181.09,112.01 181.47,111.57 181.85,111.13 182.23,110.69 182.62,110.25 183,109.81 183.38,109.37 183.77,108.93 184.15,108.5 184.53,108.06 184.92,107.63 185.3,107.2 185.68,106.77 186.06,106.33 186.45,105.9 186.83,105.47 187.21,105.04 187.6,104.61 187.98,104.17 188.36,103.73 188.74,103.29 189.13,102.84 189.51,102.39 189.89,101.93 190.28,101.47 190.66,101 191.04,100.53 191.42,100.06 191.81,99.59 192.19,99.11 192.57,98.63 192.96,98.15 193.34,97.68 193.72,97.2 194.11,96.74 194.49,96.28 194.87,95.82 195.25,95.37 195.64,94.94 196.02,94.52 196.4,94.11 196.79,93.71 197.17,93.32 197.55,92.95 197.93,92.6 198.32,92.26 198.7,91.94 199.08,91.62 199.47,91.32 199.85,91.04 200.23,90.76 200.61,90.5 201,90.24 201.38,89.99 201.76,89.75 202.15,89.51 202.53,89.28 202.91,89.05 203.3,88.82 203.68,88.59 204.06,88.37 204.44,88.14 204.83,87.92 205.21,87.69 205.59,87.47 205.98,87.24 206.36,87.02 206.74,86.79 207.12,86.57 207.51,86.34 207.89,86.12 208.27,85.9 208.66,85.68 209.04,85.46 209.42,85.25 209.8,85.04 210.19,84.83 210.57,84.62 210.95,84.41 211.34,84.21 211.72,84 212.1,83.8 212.49,83.6 212.87,83.4 213.25,83.2 213.63,83.01 214.02,82.81 214.4,82.61 214.78,82.41 215.17,82.21 215.55,82.02 215.93,81.82 216.31,81.62 216.7,81.42 217.08,81.22 217.46,81.02 217.85,80.82 218.23,80.61 218.61,80.41 218.99,80.21 219.38,80 219.76,79.79 220.14,79.59 220.53,79.38 220.91,79.17 221.29,78.96 221.67,78.75 222.06,78.54 222.44,78.32 222.82,78.11 223.21,77.9 223.59,77.69 223.97,77.48 224.36,77.28 224.74,77.07 225.12,76.87 225.5,76.67 225.89,76.47 226.27,76.27 226.65,76.07 227.04,75.88 227.42,75.69 227.8,75.5 228.18,75.3 228.57,75.11 228.95,74.92 229.33,74.73 229.72,74.54 230.1,74.34 230.48,74.15 230.86,73.95 231.25,73.75 231.63,73.55 232.01,73.35 232.4,73.15 232.78,72.95 233.16,72.75 233.55,72.54 233.93,72.34 234.31,72.13 234.69,71.93 235.08,71.73 235.46,71.52 235.84,71.32 236.23,71.12 236.61,70.93 236.99,70.73 237.37,70.53 237.76,70.34 238.14,70.15 238.52,69.96 238.91,69.76 239.29,69.57 239.67,69.38 240.05,69.19 240.44,68.99 240.82,68.8 241.2,68.6 241.59,68.39 241.97,68.19 242.35,67.98 242.74,67.76 243.12,67.54 243.5,67.31 243.88,67.07 244.27,66.83 244.65,66.59 245.03,66.33 245.42,66.07 245.8,65.81 246.18,65.54 246.56,65.26 246.95,64.98 247.33,64.7 247.71,64.42 248.1,64.14 248.48,63.87 248.86,63.59 249.24,63.32 249.63,63.06 250.01,62.8 250.39,62.56 250.78,62.32 251.16,62.09 251.54,61.88 251.93,61.68 252.31,61.49 252.69,61.31 253.07,61.15 253.46,61 253.84,60.87 254.22,60.74 254.61,60.63 254.99,60.54 255.37,60.45 255.75,60.37 256.14,60.3 256.52,60.25 256.9,60.2 257.29,60.15 257.67,60.12 258.05,60.08 258.43,60.06 258.82,60.04 259.2,60.02 259.58,60 259.97,59.99 260.35,59.98 260.73,59.97 261.11,59.97 261.5,59.96 261.88,59.96" stroke-dasharray="none" stroke="rgb(228,26,28)" stroke-width="0.75" opacity="1" stroke-opacity="1" fill="none"/>
          </g>
          <g id="Fig:densplot_01.xyplot.lines.group.4.panel.1.1.1">
            <polyline id="Fig:densplot_01.xyplot.lines.group.4.panel.1.1.1.1" points="64.72,60 65.1,60.02 65.49,60.04 65.88,60.06 66.26,60.09 66.65,60.13 67.03,60.18 67.42,60.24 67.81,60.32 68.19,60.4 68.58,60.51 68.96,60.63 69.35,60.78 69.74,60.96 70.12,61.16 70.51,61.4 70.89,61.67 71.28,61.99 71.66,62.36 72.05,62.78 72.44,63.26 72.82,63.8 73.21,64.4 73.59,65.07 73.98,65.82 74.37,66.67 74.75,67.6 75.14,68.62 75.52,69.73 75.91,70.95 76.3,72.28 76.68,73.73 77.07,75.3 77.45,76.99 77.84,78.8 78.23,80.73 78.61,82.79 79,85.01 79.38,87.36 79.77,89.83 80.15,92.44 80.54,95.18 80.93,98.05 81.31,101.07 81.7,104.21 82.08,107.46 82.47,110.82 82.86,114.29 83.24,117.84 83.63,121.49 84.01,125.21 84.4,128.98 84.79,132.8 85.17,136.65 85.56,140.52 85.94,144.4 86.33,148.26 86.72,152.09 87.1,155.89 87.49,159.63 87.87,163.31 88.26,166.91 88.64,170.41 89.03,173.81 89.42,177.11 89.8,180.3 90.19,183.37 90.57,186.32 90.96,189.12 91.35,191.79 91.73,194.32 92.12,196.73 92.5,199.01 92.89,201.15 93.28,203.15 93.66,205.01 94.05,206.75 94.43,208.36 94.82,209.86 95.21,211.24 95.59,212.51 95.98,213.65 96.36,214.69 96.75,215.63 97.14,216.48 97.52,217.25 97.91,217.93 98.29,218.51 98.68,219.02 99.06,219.46 99.45,219.84 99.84,220.15 100.22,220.41 100.61,220.6 100.99,220.75 101.38,220.85 101.77,220.91 102.15,220.93 102.54,220.92 102.92,220.88 103.31,220.81 103.7,220.72 104.08,220.61 104.47,220.48 104.85,220.34 105.24,220.2 105.63,220.05 106.01,219.89 106.4,219.74 106.78,219.59 107.17,219.44 107.55,219.29 107.94,219.15 108.33,219.02 108.71,218.89 109.1,218.77 109.48,218.64 109.87,218.52 110.26,218.39 110.64,218.26 111.03,218.11 111.41,217.95 111.8,217.77 112.19,217.58 112.57,217.36 112.96,217.1 113.34,216.82 113.73,216.51 114.12,216.17 114.5,215.8 114.89,215.39 115.27,214.95 115.66,214.48 116.04,213.98 116.43,213.46 116.82,212.92 117.2,212.36 117.59,211.79 117.97,211.22 118.36,210.64 118.75,210.07 119.13,209.5 119.52,208.94 119.9,208.4 120.29,207.88 120.68,207.38 121.06,206.9 121.45,206.44 121.83,206.01 122.22,205.6 122.61,205.23 122.99,204.87 123.38,204.53 123.76,204.22 124.15,203.91 124.54,203.63 124.92,203.35 125.31,203.08 125.69,202.81 126.08,202.54 126.46,202.26 126.85,201.98 127.24,201.68 127.62,201.36 128.01,201.02 128.39,200.66 128.78,200.27 129.17,199.85 129.55,199.41 129.94,198.92 130.32,198.4 130.71,197.85 131.1,197.27 131.48,196.65 131.87,196 132.25,195.32 132.64,194.6 133.03,193.87 133.41,193.11 133.8,192.32 134.18,191.53 134.57,190.71 134.95,189.88 135.34,189.05 135.73,188.21 136.11,187.37 136.5,186.53 136.88,185.69 137.27,184.86 137.66,184.03 138.04,183.2 138.43,182.38 138.81,181.57 139.2,180.76 139.59,179.95 139.97,179.14 140.36,178.34 140.74,177.53 141.13,176.71 141.52,175.89 141.9,175.06 142.29,174.22 142.67,173.37 143.06,172.5 143.44,171.62 143.83,170.72 144.22,169.8 144.6,168.87 144.99,167.92 145.37,166.96 145.76,165.98 146.15,165 146.53,164 146.92,163 147.3,161.99 147.69,160.99 148.08,159.98 148.46,158.98 148.85,157.99 149.23,157.01 149.62,156.05 150.01,155.1 150.39,154.16 150.78,153.24 151.16,152.34 151.55,151.46 151.94,150.6 152.32,149.77 152.71,148.95 153.09,148.15 153.48,147.37 153.86,146.61 154.25,145.88 154.64,145.16 155.02,144.45 155.41,143.76 155.79,143.09 156.18,142.44 156.57,141.8 156.95,141.17 157.34,140.55 157.72,139.95 158.11,139.36 158.5,138.78 158.88,138.2 159.27,137.64 159.65,137.08 160.04,136.53 160.43,135.98 160.81,135.44 161.2,134.9 161.58,134.36 161.97,133.81 162.35,133.27 162.74,132.73 163.13,132.18 163.51,131.63 163.9,131.08 164.28,130.52 164.67,129.97 165.06,129.41 165.44,128.85 165.83,128.29 166.21,127.73 166.6,127.17 166.99,126.62 167.37,126.08 167.76,125.54 168.14,125.01 168.53,124.5 168.92,123.99 169.3,123.51 169.69,123.03 170.07,122.58 170.46,122.14 170.84,121.72 171.23,121.32 171.62,120.94 172,120.57 172.39,120.22 172.77,119.88 173.16,119.56 173.55,119.25 173.93,118.95 174.32,118.66 174.7,118.36 175.09,118.07 175.48,117.78 175.86,117.49 176.25,117.19 176.63,116.88 177.02,116.56 177.41,116.24 177.79,115.9 178.18,115.54 178.56,115.18 178.95,114.79 179.34,114.4 179.72,114 180.11,113.58 180.49,113.16 180.88,112.72 181.26,112.28 181.65,111.84 182.04,111.39 182.42,110.94 182.81,110.49 183.19,110.05 183.58,109.6 183.97,109.16 184.35,108.72 184.74,108.28 185.12,107.84 185.51,107.41 185.9,106.98 186.28,106.55 186.67,106.13 187.05,105.7 187.44,105.27 187.83,104.83 188.21,104.39 188.6,103.95 188.98,103.5 189.37,103.05 189.75,102.58 190.14,102.11 190.53,101.63 190.91,101.15 191.3,100.66 191.68,100.16 192.07,99.66 192.46,99.16 192.84,98.66 193.23,98.15 193.61,97.65 194,97.15 194.39,96.66 194.77,96.17 195.16,95.69 195.54,95.22 195.93,94.76 196.32,94.31 196.7,93.88 197.09,93.46 197.47,93.05 197.86,92.66 198.24,92.28 198.63,91.91 199.02,91.56 199.4,91.22 199.79,90.9 200.17,90.59 200.56,90.29 200.95,90.01 201.33,89.73 201.72,89.46 202.1,89.21 202.49,88.96 202.88,88.72 203.26,88.49 203.65,88.26 204.03,88.03 204.42,87.81 204.81,87.59 205.19,87.37 205.58,87.15 205.96,86.93 206.35,86.71 206.74,86.49 207.12,86.26 207.51,86.03 207.89,85.8 208.28,85.56 208.66,85.32 209.05,85.08 209.44,84.83 209.82,84.58 210.21,84.33 210.59,84.08 210.98,83.83 211.37,83.58 211.75,83.34 212.14,83.09 212.52,82.86 212.91,82.63 213.3,82.4 213.68,82.18 214.07,81.97 214.45,81.78 214.84,81.59 215.23,81.4 215.61,81.23 216,81.07 216.38,80.91 216.77,80.77 217.15,80.63 217.54,80.49 217.93,80.36 218.31,80.24 218.7,80.12 219.08,80 219.47,79.87 219.86,79.75 220.24,79.63 220.63,79.5 221.01,79.37 221.4,79.23 221.79,79.08 222.17,78.93 222.56,78.77 222.94,78.61 223.33,78.43 223.72,78.26 224.1,78.07 224.49,77.87 224.87,77.67 225.26,77.47 225.64,77.26 226.03,77.04 226.42,76.82 226.8,76.6 227.19,76.37 227.57,76.15 227.96,75.92 228.35,75.7 228.73,75.47 229.12,75.25 229.5,75.02 229.89,74.8 230.28,74.59 230.66,74.37 231.05,74.16 231.43,73.95 231.82,73.75 232.21,73.55 232.59,73.35 232.98,73.16 233.36,72.97 233.75,72.79 234.14,72.6 234.52,72.43 234.91,72.25 235.29,72.08 235.68,71.91 236.06,71.75 236.45,71.58 236.84,71.42 237.22,71.26 237.61,71.1 237.99,70.95 238.38,70.79 238.77,70.63 239.15,70.46 239.54,70.3 239.92,70.13 240.31,69.95 240.7,69.77 241.08,69.58 241.47,69.38 241.85,69.16 242.24,68.94 242.63,68.71 243.01,68.47 243.4,68.21 243.78,67.94 244.17,67.66 244.55,67.37 244.94,67.07 245.33,66.76 245.71,66.44 246.1,66.12 246.48,65.79 246.87,65.45 247.26,65.12 247.64,64.79 248.03,64.46 248.41,64.13 248.8,63.81 249.19,63.5 249.57,63.2 249.96,62.91 250.34,62.64 250.73,62.37 251.12,62.13 251.5,61.9 251.89,61.68 252.27,61.48 252.66,61.29 253.04,61.13 253.43,60.97 253.82,60.84 254.2,60.71 254.59,60.6 254.97,60.51 255.36,60.42 255.75,60.34 256.13,60.28 256.52,60.22 256.9,60.18 257.29,60.14 257.68,60.1 258.06,60.07 258.45,60.05 258.83,60.03 259.22,60.01 259.61,60 259.99,59.99 260.38,59.98 260.76,59.97 261.15,59.96 261.54,59.96 261.92,59.96" stroke-dasharray="none" stroke="rgb(228,26,28)" stroke-width="0.75" opacity="1" stroke-opacity="1" fill="none"/>
          </g>
          <g id="Fig:densplot_01.xyplot.lines.group.5.panel.1.1.1">
            <polyline id="Fig:densplot_01.xyplot.lines.group.5.panel.1.1.1.1" points="66.22,59.97 66.6,59.98 66.98,60 67.37,60.01 67.75,60.03 68.13,60.06 68.51,60.09 68.9,60.13 69.28,60.18 69.66,60.24 70.05,60.31 70.43,60.41 70.81,60.52 71.19,60.65 71.58,60.8 71.96,60.99 72.34,61.22 72.72,61.49 73.11,61.8 73.49,62.16 73.87,62.58 74.26,63.06 74.64,63.62 75.02,64.26 75.4,64.98 75.79,65.79 76.17,66.7 76.55,67.71 76.94,68.85 77.32,70.12 77.7,71.52 78.08,73.04 78.47,74.71 78.85,76.51 79.23,78.47 79.62,80.6 80,82.88 80.38,85.3 80.76,87.88 81.15,90.61 81.53,93.49 81.91,96.54 82.29,99.73 82.68,103.05 83.06,106.49 83.44,110.05 83.83,113.72 84.21,117.5 84.59,121.38 84.97,125.32 85.36,129.32 85.74,133.37 86.12,137.46 86.51,141.57 86.89,145.69 87.27,149.79 87.65,153.88 88.04,157.92 88.42,161.92 88.8,165.85 89.18,169.69 89.57,173.44 89.95,177.09 90.33,180.63 90.72,184.05 91.1,187.34 91.48,190.48 91.86,193.46 92.25,196.29 92.63,198.97 93.01,201.5 93.4,203.88 93.78,206.08 94.16,208.11 94.54,209.99 94.93,211.73 95.31,213.32 95.69,214.78 96.07,216.1 96.46,217.27 96.84,218.33 97.22,219.27 97.61,220.12 97.99,220.86 98.37,221.52 98.75,222.08 99.14,222.56 99.52,222.97 99.9,223.31 100.29,223.6 100.67,223.83 101.05,224.01 101.43,224.13 101.82,224.2 102.2,224.24 102.58,224.24 102.97,224.2 103.35,224.13 103.73,224.02 104.11,223.88 104.5,223.71 104.88,223.52 105.26,223.31 105.64,223.07 106.03,222.82 106.41,222.55 106.79,222.26 107.18,221.97 107.56,221.66 107.94,221.35 108.32,221.02 108.71,220.7 109.09,220.37 109.47,220.04 109.86,219.71 110.24,219.38 110.62,219.05 111,218.73 111.39,218.41 111.77,218.1 112.15,217.8 112.53,217.5 112.92,217.22 113.3,216.95 113.68,216.69 114.07,216.45 114.45,216.22 114.83,216.01 115.21,215.81 115.6,215.62 115.98,215.45 116.36,215.3 116.75,215.15 117.13,215.01 117.51,214.88 117.89,214.75 118.28,214.62 118.66,214.49 119.04,214.35 119.42,214.2 119.81,214.03 120.19,213.84 120.57,213.63 120.96,213.39 121.34,213.13 121.72,212.83 122.1,212.5 122.49,212.14 122.87,211.75 123.25,211.31 123.64,210.84 124.02,210.33 124.4,209.8 124.78,209.23 125.17,208.62 125.55,207.98 125.93,207.31 126.31,206.62 126.7,205.9 127.08,205.16 127.46,204.4 127.85,203.61 128.23,202.81 128.61,202 128.99,201.18 129.38,200.34 129.76,199.5 130.14,198.66 130.53,197.82 130.91,196.98 131.29,196.14 131.67,195.32 132.06,194.5 132.44,193.69 132.82,192.89 133.21,192.11 133.59,191.35 133.97,190.6 134.35,189.86 134.74,189.15 135.12,188.45 135.5,187.77 135.88,187.11 136.27,186.46 136.65,185.82 137.03,185.19 137.42,184.58 137.8,183.97 138.18,183.37 138.56,182.77 138.95,182.17 139.33,181.57 139.71,180.96 140.1,180.35 140.48,179.72 140.86,179.08 141.24,178.42 141.63,177.75 142.01,177.06 142.39,176.34 142.77,175.59 143.16,174.83 143.54,174.04 143.92,173.22 144.31,172.38 144.69,171.52 145.07,170.63 145.45,169.72 145.84,168.8 146.22,167.86 146.6,166.91 146.99,165.94 147.37,164.98 147.75,164 148.13,163.03 148.52,162.06 148.9,161.09 149.28,160.13 149.66,159.18 150.05,158.24 150.43,157.31 150.81,156.39 151.2,155.48 151.58,154.58 151.96,153.69 152.34,152.82 152.73,151.95 153.11,151.09 153.49,150.24 153.88,149.4 154.26,148.56 154.64,147.74 155.02,146.92 155.41,146.1 155.79,145.3 156.17,144.5 156.56,143.72 156.94,142.95 157.32,142.19 157.7,141.46 158.09,140.74 158.47,140.04 158.85,139.36 159.23,138.71 159.62,138.08 160,137.49 160.38,136.91 160.77,136.36 161.15,135.84 161.53,135.34 161.91,134.86 162.3,134.41 162.68,133.96 163.06,133.53 163.45,133.11 163.83,132.7 164.21,132.28 164.59,131.87 164.98,131.44 165.36,131.01 165.74,130.57 166.12,130.12 166.51,129.66 166.89,129.18 167.27,128.68 167.66,128.17 168.04,127.65 168.42,127.11 168.8,126.57 169.19,126.01 169.57,125.46 169.95,124.9 170.34,124.34 170.72,123.79 171.1,123.25 171.48,122.72 171.87,122.2 172.25,121.7 172.63,121.21 173.01,120.74 173.4,120.29 173.78,119.85 174.16,119.44 174.55,119.05 174.93,118.67 175.31,118.31 175.69,117.96 176.08,117.62 176.46,117.29 176.84,116.96 177.23,116.64 177.61,116.32 177.99,116 178.37,115.67 178.76,115.34 179.14,115.01 179.52,114.66 179.9,114.31 180.29,113.94 180.67,113.57 181.05,113.18 181.44,112.78 181.82,112.36 182.2,111.93 182.58,111.5 182.97,111.04 183.35,110.58 183.73,110.11 184.12,109.62 184.5,109.13 184.88,108.62 185.26,108.11 185.65,107.59 186.03,107.06 186.41,106.53 186.8,105.99 187.18,105.44 187.56,104.89 187.94,104.34 188.33,103.78 188.71,103.22 189.09,102.67 189.47,102.11 189.86,101.56 190.24,101.02 190.62,100.47 191.01,99.94 191.39,99.41 191.77,98.89 192.15,98.37 192.54,97.87 192.92,97.38 193.3,96.89 193.69,96.42 194.07,95.96 194.45,95.52 194.83,95.08 195.22,94.66 195.6,94.25 195.98,93.85 196.36,93.46 196.75,93.09 197.13,92.72 197.51,92.37 197.9,92.02 198.28,91.69 198.66,91.37 199.04,91.05 199.43,90.75 199.81,90.45 200.19,90.15 200.58,89.86 200.96,89.58 201.34,89.3 201.72,89.02 202.11,88.75 202.49,88.48 202.87,88.21 203.25,87.95 203.64,87.69 204.02,87.43 204.4,87.17 204.79,86.91 205.17,86.66 205.55,86.41 205.93,86.17 206.32,85.93 206.7,85.69 207.08,85.46 207.47,85.23 207.85,85.01 208.23,84.79 208.61,84.58 209,84.38 209.38,84.19 209.76,84 210.15,83.81 210.53,83.64 210.91,83.47 211.29,83.31 211.68,83.15 212.06,83 212.44,82.86 212.82,82.72 213.21,82.59 213.59,82.46 213.97,82.34 214.36,82.22 214.74,82.09 215.12,81.97 215.5,81.85 215.89,81.73 216.27,81.6 216.65,81.46 217.04,81.32 217.42,81.17 217.8,81.01 218.18,80.84 218.57,80.65 218.95,80.46 219.33,80.25 219.71,80.03 220.1,79.79 220.48,79.54 220.86,79.28 221.25,79.01 221.63,78.73 222.01,78.43 222.39,78.14 222.78,77.83 223.16,77.53 223.54,77.22 223.93,76.91 224.31,76.61 224.69,76.31 225.07,76.02 225.46,75.74 225.84,75.47 226.22,75.21 226.6,74.96 226.99,74.73 227.37,74.51 227.75,74.31 228.14,74.12 228.52,73.94 228.9,73.78 229.28,73.62 229.67,73.48 230.05,73.35 230.43,73.22 230.82,73.1 231.2,72.98 231.58,72.87 231.96,72.75 232.35,72.63 232.73,72.51 233.11,72.39 233.5,72.26 233.88,72.12 234.26,71.98 234.64,71.82 235.03,71.66 235.41,71.49 235.79,71.31 236.17,71.12 236.56,70.93 236.94,70.72 237.32,70.51 237.71,70.29 238.09,70.07 238.47,69.85 238.85,69.62 239.24,69.38 239.62,69.15 240,68.92 240.39,68.68 240.77,68.45 241.15,68.21 241.53,67.97 241.92,67.74 242.3,67.5 242.68,67.26 243.06,67.02 243.45,66.78 243.83,66.54 244.21,66.29 244.6,66.04 244.98,65.79 245.36,65.54 245.74,65.28 246.13,65.02 246.51,64.76 246.89,64.5 247.28,64.24 247.66,63.98 248.04,63.72 248.42,63.46 248.81,63.21 249.19,62.96 249.57,62.72 249.95,62.49 250.34,62.26 250.72,62.05 251.1,61.84 251.49,61.65 251.87,61.47 252.25,61.3 252.63,61.14 253.02,60.99 253.4,60.86 253.78,60.74 254.17,60.63 254.55,60.54 254.93,60.45 255.31,60.37 255.7,60.31 256.08,60.25 256.46,60.2 256.84,60.15 257.23,60.12 257.61,60.09 257.99,60.06 258.38,60.04 258.76,60.02 259.14,60 259.52,59.99 259.91,59.98 260.29,59.97 260.67,59.97 261.06,59.96 261.44,59.96 261.82,59.96" stroke-dasharray="none" stroke="rgb(228,26,28)" stroke-width="0.75" opacity="1" stroke-opacity="1" fill="none"/>
          </g>
          <g id="Fig:densplot_01.xyplot.lines.group.6.panel.1.1.1">
            <polyline id="Fig:densplot_01.xyplot.lines.group.6.panel.1.1.1.1" points="65.13,60.02 65.52,60.04 65.9,60.07 66.29,60.1 66.68,60.14 67.06,60.19 67.45,60.26 67.83,60.34 68.22,60.44 68.6,60.55 68.99,60.69 69.37,60.85 69.76,61.05 70.15,61.28 70.53,61.56 70.92,61.88 71.3,62.25 71.69,62.67 72.07,63.15 72.46,63.71 72.85,64.34 73.23,65.06 73.62,65.86 74,66.75 74.39,67.73 74.77,68.83 75.16,70.04 75.54,71.37 75.93,72.81 76.32,74.37 76.7,76.05 77.09,77.87 77.47,79.83 77.86,81.92 78.24,84.13 78.63,86.46 79.01,88.92 79.4,91.51 79.79,94.24 80.17,97.08 80.56,100.03 80.94,103.08 81.33,106.23 81.71,109.47 82.1,112.82 82.48,116.25 82.87,119.74 83.26,123.29 83.64,126.89 84.03,130.54 84.41,134.22 84.8,137.93 85.18,141.65 85.57,145.37 85.96,149.08 86.34,152.78 86.73,156.45 87.11,160.08 87.5,163.65 87.88,167.17 88.27,170.62 88.65,173.99 89.04,177.28 89.43,180.46 89.81,183.53 90.2,186.5 90.58,189.35 90.97,192.08 91.35,194.69 91.74,197.14 92.12,199.45 92.51,201.63 92.9,203.67 93.28,205.58 93.67,207.35 94.05,208.95 94.44,210.42 94.82,211.76 95.21,212.97 95.6,214.06 95.98,215.04 96.37,215.89 96.75,216.63 97.14,217.28 97.52,217.83 97.91,218.31 98.29,218.72 98.68,219.07 99.07,219.34 99.45,219.58 99.84,219.78 100.22,219.94 100.61,220.09 100.99,220.21 101.38,220.32 101.76,220.42 102.15,220.52 102.54,220.61 102.92,220.71 103.31,220.81 103.69,220.91 104.08,221.01 104.46,221.12 104.85,221.21 105.24,221.31 105.62,221.39 106.01,221.46 106.39,221.51 106.78,221.53 107.16,221.53 107.55,221.5 107.93,221.43 108.32,221.33 108.71,221.17 109.09,220.97 109.48,220.73 109.86,220.44 110.25,220.1 110.63,219.71 111.02,219.28 111.4,218.8 111.79,218.29 112.18,217.75 112.56,217.18 112.95,216.59 113.33,215.99 113.72,215.37 114.1,214.75 114.49,214.14 114.87,213.53 115.26,212.94 115.65,212.37 116.03,211.83 116.42,211.31 116.8,210.82 117.19,210.37 117.57,209.95 117.96,209.56 118.35,209.21 118.73,208.88 119.12,208.59 119.5,208.33 119.89,208.08 120.27,207.86 120.66,207.66 121.04,207.47 121.43,207.29 121.82,207.11 122.2,206.93 122.59,206.75 122.97,206.56 123.36,206.36 123.74,206.14 124.13,205.91 124.51,205.65 124.9,205.38 125.29,205.07 125.67,204.73 126.06,204.36 126.44,203.97 126.83,203.54 127.21,203.08 127.6,202.58 127.99,202.05 128.37,201.48 128.76,200.89 129.14,200.26 129.53,199.61 129.91,198.93 130.3,198.22 130.68,197.49 131.07,196.73 131.46,195.96 131.84,195.17 132.23,194.36 132.61,193.53 133,192.7 133.38,191.85 133.77,191 134.15,190.13 134.54,189.26 134.93,188.39 135.31,187.51 135.7,186.64 136.08,185.75 136.47,184.87 136.85,183.99 137.24,183.11 137.63,182.23 138.01,181.35 138.4,180.47 138.78,179.59 139.17,178.72 139.55,177.84 139.94,176.97 140.32,176.09 140.71,175.22 141.1,174.34 141.48,173.47 141.87,172.6 142.25,171.73 142.64,170.86 143.02,169.99 143.41,169.13 143.79,168.26 144.18,167.41 144.57,166.55 144.95,165.7 145.34,164.85 145.72,164.02 146.11,163.18 146.49,162.36 146.88,161.54 147.26,160.72 147.65,159.92 148.04,159.12 148.42,158.33 148.81,157.54 149.19,156.75 149.58,155.98 149.96,155.2 150.35,154.42 150.74,153.65 151.12,152.87 151.51,152.1 151.89,151.32 152.28,150.53 152.66,149.74 153.05,148.95 153.43,148.15 153.82,147.34 154.21,146.53 154.59,145.71 154.98,144.89 155.36,144.07 155.75,143.25 156.13,142.43 156.52,141.61 156.9,140.79 157.29,139.99 157.68,139.19 158.06,138.41 158.45,137.64 158.83,136.89 159.22,136.16 159.6,135.45 159.99,134.77 160.38,134.1 160.76,133.46 161.15,132.85 161.53,132.27 161.92,131.71 162.3,131.18 162.69,130.68 163.07,130.19 163.46,129.73 163.85,129.3 164.23,128.89 164.62,128.5 165,128.12 165.39,127.76 165.77,127.41 166.16,127.08 166.54,126.75 166.93,126.44 167.32,126.12 167.7,125.82 168.09,125.51 168.47,125.2 168.86,124.88 169.24,124.56 169.63,124.23 170.01,123.89 170.4,123.54 170.79,123.17 171.17,122.79 171.56,122.39 171.94,121.98 172.33,121.54 172.71,121.09 173.1,120.62 173.49,120.13 173.87,119.62 174.26,119.09 174.64,118.55 175.03,117.99 175.41,117.43 175.8,116.85 176.18,116.26 176.57,115.67 176.96,115.07 177.34,114.47 177.73,113.87 178.11,113.28 178.5,112.68 178.88,112.1 179.27,111.52 179.65,110.95 180.04,110.39 180.43,109.84 180.81,109.31 181.2,108.79 181.58,108.28 181.97,107.78 182.35,107.29 182.74,106.82 183.13,106.35 183.51,105.9 183.9,105.46 184.28,105.03 184.67,104.6 185.05,104.18 185.44,103.77 185.82,103.36 186.21,102.96 186.6,102.56 186.98,102.16 187.37,101.77 187.75,101.37 188.14,100.98 188.52,100.59 188.91,100.21 189.29,99.82 189.68,99.43 190.07,99.04 190.45,98.66 190.84,98.28 191.22,97.9 191.61,97.52 191.99,97.14 192.38,96.77 192.77,96.4 193.15,96.03 193.54,95.67 193.92,95.31 194.31,94.96 194.69,94.61 195.08,94.26 195.46,93.92 195.85,93.59 196.24,93.26 196.62,92.93 197.01,92.61 197.39,92.29 197.78,91.97 198.16,91.66 198.55,91.35 198.93,91.04 199.32,90.74 199.71,90.44 200.09,90.14 200.48,89.84 200.86,89.55 201.25,89.26 201.63,88.97 202.02,88.69 202.4,88.41 202.79,88.13 203.18,87.86 203.56,87.59 203.95,87.33 204.33,87.07 204.72,86.82 205.1,86.58 205.49,86.34 205.88,86.11 206.26,85.89 206.65,85.68 207.03,85.47 207.42,85.27 207.8,85.08 208.19,84.9 208.57,84.73 208.96,84.56 209.35,84.39 209.73,84.23 210.12,84.08 210.5,83.93 210.89,83.79 211.27,83.65 211.66,83.51 212.04,83.38 212.43,83.25 212.82,83.11 213.2,82.99 213.59,82.86 213.97,82.73 214.36,82.61 214.74,82.48 215.13,82.36 215.52,82.24 215.9,82.12 216.29,82 216.67,81.88 217.06,81.77 217.44,81.66 217.83,81.54 218.21,81.43 218.6,81.32 218.99,81.21 219.37,81.1 219.76,80.99 220.14,80.87 220.53,80.75 220.91,80.63 221.3,80.5 221.68,80.37 222.07,80.23 222.46,80.08 222.84,79.92 223.23,79.76 223.61,79.58 224,79.4 224.38,79.2 224.77,78.99 225.16,78.77 225.54,78.53 225.93,78.29 226.31,78.04 226.7,77.78 227.08,77.5 227.47,77.22 227.85,76.94 228.24,76.65 228.63,76.35 229.01,76.06 229.4,75.76 229.78,75.46 230.17,75.16 230.55,74.87 230.94,74.58 231.32,74.3 231.71,74.02 232.1,73.75 232.48,73.49 232.87,73.24 233.25,73 233.64,72.77 234.02,72.55 234.41,72.34 234.79,72.13 235.18,71.94 235.57,71.75 235.95,71.58 236.34,71.4 236.72,71.24 237.11,71.08 237.49,70.92 237.88,70.76 238.27,70.61 238.65,70.45 239.04,70.29 239.42,70.13 239.81,69.96 240.19,69.79 240.58,69.61 240.96,69.42 241.35,69.23 241.74,69.02 242.12,68.8 242.51,68.58 242.89,68.34 243.28,68.09 243.66,67.83 244.05,67.56 244.43,67.28 244.82,66.99 245.21,66.7 245.59,66.39 245.98,66.08 246.36,65.77 246.75,65.45 247.13,65.13 247.52,64.81 247.91,64.5 248.29,64.18 248.68,63.88 249.06,63.58 249.45,63.29 249.83,63.01 250.22,62.74 250.6,62.48 250.99,62.23 251.38,62 251.76,61.79 252.15,61.59 252.53,61.4 252.92,61.22 253.3,61.07 253.69,60.93 254.07,60.8 254.46,60.68 254.85,60.57 255.23,60.48 255.62,60.4 256,60.33 256.39,60.27 256.77,60.22 257.16,60.17 257.55,60.13 257.93,60.1 258.32,60.07 258.7,60.05 259.09,60.03 259.47,60.01 259.86,60 260.24,59.99 260.63,59.98 261.02,59.97 261.4,59.96 261.79,59.96 262.17,59.96" stroke-dasharray="none" stroke="rgb(55,126,184)" stroke-width="0.75" opacity="1" stroke-opacity="1" fill="none"/>
          </g>
          <g id="Fig:densplot_01.xyplot.lines.group.7.panel.1.1.1">
            <polyline id="Fig:densplot_01.xyplot.lines.group.7.panel.1.1.1.1" points="64.96,59.97 65.34,59.98 65.73,59.99 66.12,60.01 66.5,60.02 66.89,60.04 67.27,60.07 67.66,60.11 68.04,60.15 68.43,60.2 68.81,60.26 69.2,60.34 69.58,60.43 69.97,60.53 70.35,60.67 70.74,60.82 71.12,61 71.51,61.21 71.89,61.45 72.28,61.73 72.66,62.06 73.05,62.44 73.43,62.87 73.82,63.36 74.2,63.91 74.59,64.53 74.97,65.24 75.36,66.04 75.74,66.92 76.13,67.9 76.51,68.98 76.9,70.17 77.28,71.49 77.67,72.95 78.05,74.54 78.44,76.26 78.82,78.13 79.21,80.14 79.59,82.32 79.98,84.68 80.36,87.21 80.75,89.9 81.13,92.76 81.52,95.78 81.9,98.96 82.29,102.34 82.67,105.88 83.06,109.56 83.44,113.39 83.83,117.34 84.21,121.42 84.6,125.61 84.98,129.9 85.37,134.26 85.75,138.67 86.14,143.12 86.52,147.59 86.91,152.06 87.29,156.49 87.68,160.88 88.06,165.21 88.45,169.45 88.83,173.6 89.22,177.63 89.6,181.52 89.99,185.24 90.37,188.81 90.76,192.22 91.14,195.45 91.53,198.5 91.91,201.36 92.3,204 92.68,206.46 93.07,208.73 93.45,210.82 93.84,212.73 94.22,214.47 94.61,216.01 94.99,217.39 95.38,218.62 95.76,219.71 96.15,220.67 96.53,221.51 96.92,222.22 97.3,222.82 97.69,223.32 98.07,223.74 98.46,224.08 98.84,224.35 99.23,224.55 99.61,224.69 100,224.77 100.38,224.8 100.77,224.8 101.15,224.74 101.54,224.66 101.92,224.53 102.31,224.36 102.69,224.16 103.08,223.93 103.46,223.67 103.85,223.37 104.23,223.05 104.62,222.69 105,222.3 105.39,221.88 105.77,221.44 106.16,220.97 106.54,220.47 106.93,219.95 107.31,219.4 107.7,218.83 108.08,218.24 108.47,217.64 108.85,217.03 109.24,216.41 109.62,215.78 110.01,215.15 110.39,214.52 110.78,213.9 111.16,213.29 111.55,212.7 111.93,212.13 112.32,211.59 112.71,211.09 113.09,210.62 113.48,210.19 113.86,209.8 114.25,209.46 114.63,209.18 115.02,208.94 115.4,208.76 115.79,208.62 116.17,208.53 116.56,208.5 116.94,208.51 117.33,208.56 117.71,208.64 118.1,208.74 118.48,208.87 118.87,209.01 119.25,209.16 119.64,209.3 120.02,209.44 120.41,209.56 120.79,209.65 121.18,209.72 121.56,209.75 121.95,209.74 122.33,209.68 122.72,209.58 123.1,209.44 123.49,209.25 123.87,209.02 124.26,208.73 124.64,208.41 125.03,208.05 125.41,207.65 125.8,207.23 126.18,206.78 126.57,206.31 126.95,205.82 127.34,205.31 127.72,204.8 128.11,204.27 128.49,203.74 128.88,203.21 129.26,202.66 129.65,202.11 130.03,201.56 130.42,201 130.8,200.43 131.19,199.85 131.57,199.26 131.96,198.65 132.34,198.02 132.73,197.38 133.11,196.71 133.5,196.03 133.88,195.32 134.27,194.59 134.65,193.84 135.04,193.07 135.42,192.27 135.81,191.46 136.19,190.63 136.58,189.78 136.96,188.92 137.35,188.05 137.73,187.17 138.12,186.29 138.5,185.4 138.89,184.51 139.27,183.62 139.66,182.73 140.04,181.85 140.43,180.97 140.81,180.1 141.2,179.24 141.58,178.38 141.97,177.53 142.35,176.69 142.74,175.85 143.12,175.02 143.51,174.19 143.89,173.37 144.28,172.56 144.66,171.74 145.05,170.93 145.43,170.11 145.82,169.3 146.2,168.49 146.59,167.67 146.97,166.85 147.36,166.03 147.74,165.21 148.13,164.38 148.51,163.54 148.9,162.7 149.28,161.86 149.67,161.01 150.05,160.15 150.44,159.29 150.82,158.43 151.21,157.56 151.59,156.69 151.98,155.82 152.36,154.94 152.75,154.06 153.13,153.18 153.52,152.31 153.9,151.43 154.29,150.56 154.67,149.68 155.06,148.82 155.44,147.95 155.83,147.09 156.21,146.24 156.6,145.39 156.98,144.55 157.37,143.72 157.75,142.9 158.14,142.08 158.52,141.28 158.91,140.48 159.3,139.7 159.68,138.93 160.07,138.18 160.45,137.43 160.84,136.7 161.22,135.99 161.61,135.29 161.99,134.61 162.38,133.95 162.76,133.3 163.15,132.67 163.53,132.05 163.92,131.46 164.3,130.87 164.69,130.31 165.07,129.76 165.46,129.22 165.84,128.7 166.23,128.19 166.61,127.7 167,127.21 167.38,126.74 167.77,126.27 168.15,125.81 168.54,125.36 168.92,124.91 169.31,124.47 169.69,124.04 170.08,123.61 170.46,123.18 170.85,122.75 171.23,122.33 171.62,121.91 172,121.49 172.39,121.08 172.77,120.66 173.16,120.25 173.54,119.85 173.93,119.44 174.31,119.04 174.7,118.64 175.08,118.24 175.47,117.85 175.85,117.45 176.24,117.06 176.62,116.67 177.01,116.28 177.39,115.88 177.78,115.49 178.16,115.09 178.55,114.69 178.93,114.28 179.32,113.86 179.7,113.43 180.09,113 180.47,112.55 180.86,112.09 181.24,111.62 181.63,111.14 182.01,110.64 182.4,110.14 182.78,109.62 183.17,109.09 183.55,108.55 183.94,108 184.32,107.44 184.71,106.88 185.09,106.32 185.48,105.76 185.86,105.19 186.25,104.63 186.63,104.07 187.02,103.52 187.4,102.97 187.79,102.43 188.17,101.89 188.56,101.36 188.94,100.84 189.33,100.32 189.71,99.81 190.1,99.3 190.48,98.8 190.87,98.29 191.25,97.8 191.64,97.3 192.02,96.8 192.41,96.31 192.79,95.81 193.18,95.32 193.56,94.83 193.95,94.34 194.33,93.86 194.72,93.38 195.1,92.91 195.49,92.44 195.87,91.99 196.26,91.55 196.64,91.12 197.03,90.71 197.41,90.32 197.8,89.94 198.18,89.59 198.57,89.26 198.95,88.95 199.34,88.66 199.72,88.4 200.11,88.16 200.49,87.94 200.88,87.75 201.26,87.58 201.65,87.42 202.03,87.28 202.42,87.16 202.8,87.05 203.19,86.95 203.57,86.87 203.96,86.78 204.34,86.7 204.73,86.62 205.11,86.53 205.5,86.44 205.89,86.34 206.27,86.23 206.66,86.11 207.04,85.98 207.43,85.83 207.81,85.66 208.2,85.48 208.58,85.28 208.97,85.06 209.35,84.83 209.74,84.58 210.12,84.32 210.51,84.04 210.89,83.74 211.28,83.44 211.66,83.13 212.05,82.82 212.43,82.49 212.82,82.17 213.2,81.84 213.59,81.52 213.97,81.19 214.36,80.87 214.74,80.56 215.13,80.25 215.51,79.95 215.9,79.66 216.28,79.38 216.67,79.1 217.05,78.84 217.44,78.59 217.82,78.34 218.21,78.11 218.59,77.89 218.98,77.68 219.36,77.48 219.75,77.28 220.13,77.1 220.52,76.93 220.9,76.77 221.29,76.61 221.67,76.46 222.06,76.32 222.44,76.18 222.83,76.05 223.21,75.93 223.6,75.81 223.98,75.69 224.37,75.58 224.75,75.46 225.14,75.35 225.52,75.23 225.91,75.11 226.29,74.99 226.68,74.86 227.06,74.73 227.45,74.59 227.83,74.45 228.22,74.29 228.6,74.14 228.99,73.97 229.37,73.8 229.76,73.62 230.14,73.44 230.53,73.25 230.91,73.05 231.3,72.86 231.68,72.66 232.07,72.45 232.45,72.25 232.84,72.04 233.22,71.83 233.61,71.63 233.99,71.42 234.38,71.22 234.76,71.02 235.15,70.82 235.53,70.63 235.92,70.43 236.3,70.24 236.69,70.05 237.07,69.87 237.46,69.68 237.84,69.5 238.23,69.32 238.61,69.14 239,68.96 239.38,68.78 239.77,68.59 240.15,68.41 240.54,68.22 240.92,68.04 241.31,67.84 241.69,67.64 242.08,67.44 242.46,67.23 242.85,67.02 243.23,66.8 243.62,66.57 244,66.34 244.39,66.1 244.77,65.85 245.16,65.6 245.54,65.34 245.93,65.08 246.31,64.81 246.7,64.55 247.08,64.28 247.47,64.01 247.85,63.74 248.24,63.48 248.62,63.22 249.01,62.97 249.39,62.72 249.78,62.48 250.16,62.25 250.55,62.03 250.93,61.83 251.32,61.63 251.7,61.45 252.09,61.28 252.48,61.12 252.86,60.98 253.25,60.85 253.63,60.73 254.02,60.62 254.4,60.52 254.79,60.44 255.17,60.36 255.56,60.3 255.94,60.24 256.33,60.19 256.71,60.15 257.1,60.11 257.48,60.08 257.87,60.06 258.25,60.03 258.64,60.02 259.02,60 259.41,59.99 259.79,59.98 260.18,59.97 260.56,59.97 260.95,59.96 261.33,59.96 261.72,59.95" stroke-dasharray="none" stroke="rgb(55,126,184)" stroke-width="0.75" opacity="1" stroke-opacity="1" fill="none"/>
          </g>
          <g id="Fig:densplot_01.xyplot.lines.group.8.panel.1.1.1">
            <polyline id="Fig:densplot_01.xyplot.lines.group.8.panel.1.1.1.1" points="64.96,60.01 65.35,60.02 65.73,60.05 66.12,60.08 66.51,60.11 66.89,60.15 67.28,60.21 67.66,60.27 68.05,60.35 68.43,60.44 68.82,60.56 69.21,60.69 69.59,60.85 69.98,61.03 70.36,61.25 70.75,61.51 71.14,61.8 71.52,62.13 71.91,62.52 72.29,62.96 72.68,63.46 73.06,64.03 73.45,64.66 73.84,65.36 74.22,66.14 74.61,67.02 74.99,68 75.38,69.06 75.76,70.23 76.15,71.49 76.54,72.87 76.92,74.38 77.31,76.01 77.69,77.76 78.08,79.64 78.46,81.65 78.85,83.78 79.24,86.06 79.62,88.48 80.01,91.04 80.39,93.72 80.78,96.54 81.16,99.47 81.55,102.54 81.94,105.73 82.32,109.03 82.71,112.43 83.09,115.92 83.48,119.49 83.87,123.12 84.25,126.83 84.64,130.58 85.02,134.35 85.41,138.15 85.79,141.95 86.18,145.74 86.57,149.5 86.95,153.23 87.34,156.91 87.72,160.53 88.11,164.08 88.49,167.55 88.88,170.93 89.27,174.2 89.65,177.37 90.04,180.44 90.42,183.39 90.81,186.23 91.19,188.95 91.58,191.53 91.97,193.99 92.35,196.34 92.74,198.57 93.12,200.68 93.51,202.69 93.89,204.56 94.28,206.32 94.67,207.97 95.05,209.53 95.44,210.99 95.82,212.35 96.21,213.6 96.6,214.76 96.98,215.83 97.37,216.81 97.75,217.72 98.14,218.54 98.52,219.27 98.91,219.92 99.3,220.49 99.68,221 100.07,221.43 100.45,221.8 100.84,222.1 101.22,222.34 101.61,222.52 102,222.64 102.38,222.73 102.77,222.77 103.15,222.77 103.54,222.74 103.92,222.68 104.31,222.6 104.7,222.5 105.08,222.38 105.47,222.26 105.85,222.13 106.24,221.99 106.63,221.86 107.01,221.72 107.4,221.58 107.78,221.44 108.17,221.3 108.55,221.16 108.94,221.02 109.33,220.86 109.71,220.7 110.1,220.53 110.48,220.35 110.87,220.15 111.25,219.93 111.64,219.69 112.03,219.43 112.41,219.16 112.8,218.86 113.18,218.54 113.57,218.2 113.95,217.83 114.34,217.46 114.73,217.06 115.11,216.65 115.5,216.23 115.88,215.8 116.27,215.36 116.65,214.91 117.04,214.46 117.43,214.01 117.81,213.56 118.2,213.11 118.58,212.66 118.97,212.21 119.36,211.76 119.74,211.32 120.13,210.88 120.51,210.44 120.9,209.99 121.28,209.55 121.67,209.11 122.06,208.66 122.44,208.21 122.83,207.75 123.21,207.28 123.6,206.8 123.98,206.3 124.37,205.8 124.76,205.28 125.14,204.75 125.53,204.2 125.91,203.64 126.3,203.06 126.68,202.47 127.07,201.86 127.46,201.24 127.84,200.61 128.23,199.97 128.61,199.33 129,198.68 129.38,198.03 129.77,197.38 130.16,196.74 130.54,196.1 130.93,195.48 131.31,194.86 131.7,194.25 132.09,193.66 132.47,193.08 132.86,192.51 133.24,191.96 133.63,191.42 134.01,190.88 134.4,190.35 134.79,189.82 135.17,189.29 135.56,188.75 135.94,188.2 136.33,187.64 136.71,187.06 137.1,186.45 137.49,185.81 137.87,185.14 138.26,184.43 138.64,183.69 139.03,182.91 139.41,182.09 139.8,181.22 140.19,180.32 140.57,179.38 140.96,178.41 141.34,177.4 141.73,176.37 142.12,175.32 142.5,174.24 142.89,173.16 143.27,172.08 143.66,170.99 144.04,169.9 144.43,168.83 144.82,167.77 145.2,166.73 145.59,165.71 145.97,164.71 146.36,163.73 146.74,162.78 147.13,161.86 147.52,160.96 147.9,160.08 148.29,159.21 148.67,158.37 149.06,157.53 149.44,156.72 149.83,155.9 150.22,155.1 150.6,154.3 150.99,153.49 151.37,152.69 151.76,151.89 152.14,151.08 152.53,150.27 152.92,149.46 153.3,148.64 153.69,147.83 154.07,147.01 154.46,146.2 154.85,145.4 155.23,144.6 155.62,143.81 156,143.02 156.39,142.26 156.77,141.5 157.16,140.76 157.55,140.03 157.93,139.32 158.32,138.63 158.7,137.95 159.09,137.29 159.47,136.65 159.86,136.02 160.25,135.41 160.63,134.81 161.02,134.23 161.4,133.66 161.79,133.1 162.17,132.55 162.56,132.01 162.95,131.48 163.33,130.96 163.72,130.44 164.1,129.94 164.49,129.44 164.87,128.94 165.26,128.45 165.65,127.97 166.03,127.48 166.42,127 166.8,126.52 167.19,126.03 167.58,125.55 167.96,125.07 168.35,124.58 168.73,124.09 169.12,123.6 169.5,123.11 169.89,122.61 170.28,122.11 170.66,121.61 171.05,121.11 171.43,120.6 171.82,120.09 172.2,119.58 172.59,119.07 172.98,118.56 173.36,118.06 173.75,117.55 174.13,117.05 174.52,116.55 174.9,116.05 175.29,115.56 175.68,115.07 176.06,114.59 176.45,114.12 176.83,113.65 177.22,113.18 177.61,112.73 177.99,112.28 178.38,111.84 178.76,111.41 179.15,110.99 179.53,110.58 179.92,110.17 180.31,109.78 180.69,109.4 181.08,109.03 181.46,108.67 181.85,108.32 182.23,107.99 182.62,107.66 183.01,107.34 183.39,107.04 183.78,106.74 184.16,106.44 184.55,106.16 184.93,105.87 185.32,105.59 185.71,105.31 186.09,105.03 186.48,104.74 186.86,104.45 187.25,104.15 187.63,103.85 188.02,103.53 188.41,103.21 188.79,102.88 189.18,102.54 189.56,102.18 189.95,101.82 190.34,101.45 190.72,101.07 191.11,100.68 191.49,100.28 191.88,99.87 192.26,99.46 192.65,99.05 193.04,98.63 193.42,98.2 193.81,97.78 194.19,97.35 194.58,96.92 194.96,96.49 195.35,96.06 195.74,95.63 196.12,95.21 196.51,94.78 196.89,94.35 197.28,93.93 197.66,93.51 198.05,93.09 198.44,92.67 198.82,92.26 199.21,91.86 199.59,91.46 199.98,91.07 200.36,90.68 200.75,90.3 201.14,89.94 201.52,89.58 201.91,89.23 202.29,88.89 202.68,88.57 203.07,88.26 203.45,87.96 203.84,87.67 204.22,87.4 204.61,87.14 204.99,86.89 205.38,86.65 205.77,86.42 206.15,86.2 206.54,85.98 206.92,85.78 207.31,85.58 207.69,85.39 208.08,85.2 208.47,85.02 208.85,84.84 209.24,84.65 209.62,84.48 210.01,84.3 210.39,84.12 210.78,83.94 211.17,83.76 211.55,83.58 211.94,83.39 212.32,83.21 212.71,83.03 213.1,82.85 213.48,82.67 213.87,82.5 214.25,82.33 214.64,82.16 215.02,81.99 215.41,81.83 215.8,81.68 216.18,81.53 216.57,81.39 216.95,81.25 217.34,81.12 217.72,81 218.11,80.88 218.5,80.76 218.88,80.65 219.27,80.54 219.65,80.43 220.04,80.31 220.42,80.2 220.81,80.08 221.2,79.96 221.58,79.84 221.97,79.71 222.35,79.57 222.74,79.42 223.12,79.26 223.51,79.09 223.9,78.92 224.28,78.73 224.67,78.53 225.05,78.33 225.44,78.11 225.83,77.88 226.21,77.65 226.6,77.4 226.98,77.15 227.37,76.9 227.75,76.63 228.14,76.37 228.53,76.1 228.91,75.82 229.3,75.55 229.68,75.27 230.07,74.99 230.45,74.72 230.84,74.45 231.23,74.18 231.61,73.92 232,73.66 232.38,73.41 232.77,73.16 233.15,72.92 233.54,72.69 233.93,72.48 234.31,72.27 234.7,72.07 235.08,71.88 235.47,71.7 235.85,71.53 236.24,71.37 236.63,71.22 237.01,71.07 237.4,70.94 237.78,70.81 238.17,70.68 238.56,70.56 238.94,70.45 239.33,70.33 239.71,70.21 240.1,70.1 240.48,69.97 240.87,69.84 241.26,69.71 241.64,69.56 242.03,69.4 242.41,69.23 242.8,69.05 243.18,68.85 243.57,68.63 243.96,68.4 244.34,68.15 244.73,67.89 245.11,67.61 245.5,67.32 245.88,67.01 246.27,66.69 246.66,66.36 247.04,66.03 247.43,65.68 247.81,65.33 248.2,64.99 248.58,64.64 248.97,64.29 249.36,63.96 249.74,63.63 250.13,63.31 250.51,63 250.9,62.71 251.29,62.43 251.67,62.17 252.06,61.92 252.44,61.69 252.83,61.48 253.21,61.29 253.6,61.12 253.99,60.96 254.37,60.82 254.76,60.69 255.14,60.58 255.53,60.48 255.91,60.4 256.3,60.32 256.69,60.26 257.07,60.2 257.46,60.16 257.84,60.12 258.23,60.08 258.61,60.06 259,60.04 259.39,60.02 259.77,60 260.16,59.99 260.54,59.98 260.93,59.97 261.32,59.97 261.7,59.96 262.09,59.96" stroke-dasharray="none" stroke="rgb(55,126,184)" stroke-width="0.75" opacity="1" stroke-opacity="1" fill="none"/>
          </g>
          <g id="Fig:densplot_01.xyplot.lines.group.9.panel.1.1.1">
            <polyline id="Fig:densplot_01.xyplot.lines.group.9.panel.1.1.1.1" points="65.37,59.99 65.76,60 66.14,60.02 66.53,60.04 66.91,60.07 67.29,60.1 67.68,60.14 68.06,60.2 68.45,60.26 68.83,60.34 69.21,60.43 69.6,60.54 69.98,60.67 70.36,60.83 70.75,61.01 71.13,61.23 71.52,61.49 71.9,61.79 72.28,62.13 72.67,62.52 73.05,62.97 73.43,63.48 73.82,64.06 74.2,64.72 74.59,65.45 74.97,66.27 75.35,67.18 75.74,68.18 76.12,69.31 76.5,70.54 76.89,71.88 77.27,73.35 77.66,74.93 78.04,76.65 78.42,78.52 78.81,80.54 79.19,82.7 79.57,85 79.96,87.44 80.34,90.03 80.73,92.78 81.11,95.7 81.49,98.76 81.88,101.95 82.26,105.28 82.64,108.75 83.03,112.33 83.41,116.05 83.8,119.88 84.18,123.79 84.56,127.78 84.95,131.83 85.33,135.93 85.71,140.08 86.1,144.24 86.48,148.41 86.87,152.56 87.25,156.68 87.63,160.75 88.02,164.77 88.4,168.69 88.78,172.53 89.17,176.26 89.55,179.88 89.94,183.39 90.32,186.76 90.7,189.97 91.09,193.03 91.47,195.95 91.85,198.73 92.24,201.35 92.62,203.82 93.01,206.12 93.39,208.27 93.77,210.27 94.16,212.12 94.54,213.84 94.92,215.43 95.31,216.87 95.69,218.18 96.08,219.36 96.46,220.43 96.84,221.39 97.23,222.24 97.61,223 97.99,223.63 98.38,224.18 98.76,224.64 99.15,225.01 99.53,225.31 99.91,225.52 100.3,225.66 100.68,225.72 101.06,225.71 101.45,225.63 101.83,225.5 102.22,225.31 102.6,225.06 102.98,224.74 103.37,224.38 103.75,223.98 104.13,223.53 104.52,223.04 104.9,222.52 105.29,221.96 105.67,221.38 106.05,220.78 106.44,220.16 106.82,219.54 107.2,218.91 107.59,218.28 107.97,217.66 108.36,217.06 108.74,216.47 109.12,215.9 109.51,215.36 109.89,214.85 110.27,214.38 110.66,213.95 111.04,213.55 111.43,213.19 111.81,212.87 112.19,212.58 112.58,212.34 112.96,212.13 113.34,211.96 113.73,211.81 114.11,211.68 114.5,211.58 114.88,211.49 115.26,211.41 115.65,211.33 116.03,211.26 116.41,211.17 116.8,211.08 117.18,210.97 117.57,210.84 117.95,210.69 118.33,210.52 118.72,210.33 119.1,210.1 119.48,209.86 119.87,209.58 120.25,209.28 120.64,208.96 121.02,208.62 121.4,208.26 121.79,207.89 122.17,207.51 122.55,207.12 122.94,206.73 123.32,206.34 123.71,205.95 124.09,205.57 124.47,205.2 124.86,204.84 125.24,204.48 125.62,204.14 126.01,203.81 126.39,203.49 126.78,203.18 127.16,202.87 127.54,202.57 127.93,202.27 128.31,201.96 128.69,201.65 129.08,201.33 129.46,200.99 129.85,200.63 130.23,200.26 130.61,199.86 131,199.44 131.38,198.98 131.76,198.5 132.15,197.99 132.53,197.44 132.92,196.86 133.3,196.26 133.68,195.62 134.07,194.96 134.45,194.27 134.83,193.55 135.22,192.81 135.6,192.05 135.99,191.28 136.37,190.49 136.75,189.69 137.14,188.88 137.52,188.06 137.9,187.23 138.29,186.4 138.67,185.56 139.06,184.73 139.44,183.89 139.82,183.04 140.21,182.2 140.59,181.35 140.97,180.51 141.36,179.66 141.74,178.81 142.13,177.95 142.51,177.1 142.89,176.24 143.28,175.37 143.66,174.5 144.05,173.62 144.43,172.73 144.81,171.84 145.2,170.94 145.58,170.03 145.96,169.12 146.35,168.19 146.73,167.26 147.12,166.32 147.5,165.38 147.88,164.43 148.27,163.47 148.65,162.51 149.03,161.55 149.42,160.58 149.8,159.62 150.19,158.66 150.57,157.69 150.95,156.74 151.34,155.78 151.72,154.83 152.1,153.89 152.49,152.96 152.87,152.03 153.26,151.11 153.64,150.2 154.02,149.3 154.41,148.41 154.79,147.53 155.17,146.66 155.56,145.8 155.94,144.95 156.33,144.1 156.71,143.27 157.09,142.45 157.48,141.63 157.86,140.83 158.24,140.03 158.63,139.25 159.01,138.48 159.4,137.72 159.78,136.97 160.16,136.24 160.55,135.52 160.93,134.82 161.31,134.13 161.7,133.47 162.08,132.83 162.47,132.2 162.85,131.6 163.23,131.02 163.62,130.47 164,129.94 164.38,129.43 164.77,128.95 165.15,128.49 165.54,128.05 165.92,127.63 166.3,127.24 166.69,126.86 167.07,126.5 167.45,126.15 167.84,125.81 168.22,125.48 168.61,125.15 168.99,124.83 169.37,124.51 169.76,124.19 170.14,123.86 170.52,123.53 170.91,123.18 171.29,122.83 171.68,122.46 172.06,122.09 172.44,121.7 172.83,121.29 173.21,120.88 173.59,120.44 173.98,120 174.36,119.55 174.75,119.08 175.13,118.61 175.51,118.13 175.9,117.65 176.28,117.16 176.66,116.66 177.05,116.17 177.43,115.67 177.82,115.17 178.2,114.68 178.58,114.18 178.97,113.69 179.35,113.19 179.73,112.7 180.12,112.22 180.5,111.73 180.89,111.25 181.27,110.76 181.65,110.28 182.04,109.8 182.42,109.32 182.8,108.84 183.19,108.36 183.57,107.88 183.96,107.4 184.34,106.91 184.72,106.42 185.11,105.93 185.49,105.44 185.87,104.94 186.26,104.43 186.64,103.93 187.03,103.41 187.41,102.9 187.79,102.38 188.18,101.85 188.56,101.32 188.94,100.79 189.33,100.25 189.71,99.71 190.1,99.17 190.48,98.63 190.86,98.1 191.25,97.56 191.63,97.03 192.01,96.51 192.4,95.99 192.78,95.48 193.17,94.98 193.55,94.49 193.93,94.02 194.32,93.56 194.7,93.11 195.08,92.68 195.47,92.26 195.85,91.87 196.24,91.49 196.62,91.12 197,90.78 197.39,90.45 197.77,90.13 198.15,89.84 198.54,89.56 198.92,89.3 199.31,89.05 199.69,88.81 200.07,88.59 200.46,88.38 200.84,88.19 201.22,88 201.61,87.82 201.99,87.65 202.38,87.49 202.76,87.33 203.14,87.18 203.53,87.03 203.91,86.89 204.29,86.75 204.68,86.61 205.06,86.46 205.45,86.32 205.83,86.18 206.21,86.03 206.6,85.88 206.98,85.72 207.36,85.56 207.75,85.4 208.13,85.22 208.52,85.05 208.9,84.86 209.28,84.67 209.67,84.48 210.05,84.28 210.43,84.08 210.82,83.87 211.2,83.66 211.59,83.45 211.97,83.23 212.35,83.01 212.74,82.8 213.12,82.58 213.5,82.36 213.89,82.13 214.27,81.91 214.66,81.69 215.04,81.46 215.42,81.24 215.81,81.01 216.19,80.78 216.58,80.55 216.96,80.31 217.34,80.07 217.73,79.83 218.11,79.59 218.49,79.35 218.88,79.1 219.26,78.85 219.65,78.6 220.03,78.35 220.41,78.09 220.8,77.84 221.18,77.6 221.56,77.35 221.95,77.11 222.33,76.87 222.72,76.63 223.1,76.41 223.48,76.18 223.87,75.96 224.25,75.75 224.63,75.55 225.02,75.35 225.4,75.16 225.79,74.97 226.17,74.79 226.55,74.61 226.94,74.44 227.32,74.27 227.7,74.1 228.09,73.94 228.47,73.78 228.86,73.62 229.24,73.46 229.62,73.31 230.01,73.15 230.39,73 230.77,72.85 231.16,72.7 231.54,72.55 231.93,72.4 232.31,72.25 232.69,72.1 233.08,71.95 233.46,71.8 233.84,71.65 234.23,71.51 234.61,71.36 235,71.21 235.38,71.06 235.76,70.91 236.15,70.76 236.53,70.6 236.91,70.45 237.3,70.29 237.68,70.13 238.07,69.97 238.45,69.81 238.83,69.64 239.22,69.47 239.6,69.29 239.98,69.12 240.37,68.93 240.75,68.74 241.14,68.55 241.52,68.35 241.9,68.15 242.29,67.93 242.67,67.71 243.05,67.48 243.44,67.25 243.82,67.01 244.21,66.76 244.59,66.5 244.97,66.23 245.36,65.96 245.74,65.68 246.12,65.4 246.51,65.11 246.89,64.82 247.28,64.52 247.66,64.23 248.04,63.94 248.43,63.65 248.81,63.37 249.19,63.1 249.58,62.83 249.96,62.57 250.35,62.33 250.73,62.09 251.11,61.87 251.5,61.66 251.88,61.47 252.26,61.29 252.65,61.12 253.03,60.97 253.42,60.84 253.8,60.71 254.18,60.6 254.57,60.51 254.95,60.42 255.33,60.35 255.72,60.28 256.1,60.22 256.49,60.17 256.87,60.13 257.25,60.1 257.64,60.07 258.02,60.05 258.4,60.03 258.79,60.01 259.17,60 259.56,59.98 259.94,59.98 260.32,59.97 260.71,59.96 261.09,59.96 261.47,59.96" stroke-dasharray="none" stroke="rgb(55,126,184)" stroke-width="0.75" opacity="1" stroke-opacity="1" fill="none"/>
          </g>
          <g id="Fig:densplot_01.xyplot.lines.group.10.panel.1.1.1">
            <polyline id="Fig:densplot_01.xyplot.lines.group.10.panel.1.1.1.1" points="65.02,59.97 65.41,59.98 65.79,59.99 66.18,60 66.56,60.02 66.95,60.04 67.33,60.06 67.72,60.09 68.1,60.13 68.49,60.18 68.87,60.24 69.26,60.31 69.64,60.39 70.03,60.49 70.41,60.62 70.8,60.76 71.18,60.93 71.57,61.13 71.95,61.36 72.34,61.63 72.72,61.94 73.11,62.3 73.49,62.71 73.88,63.18 74.26,63.71 74.65,64.3 75.03,64.97 75.42,65.74 75.8,66.58 76.19,67.52 76.57,68.56 76.96,69.7 77.34,70.95 77.73,72.34 78.11,73.85 78.5,75.49 78.88,77.27 79.27,79.18 79.65,81.24 80.04,83.45 80.42,85.84 80.81,88.37 81.19,91.06 81.58,93.9 81.96,96.89 82.35,100.03 82.73,103.35 83.12,106.81 83.5,110.4 83.89,114.11 84.27,117.95 84.66,121.89 85.04,125.94 85.43,130.08 85.81,134.28 86.2,138.53 86.58,142.81 86.97,147.11 87.35,151.42 87.74,155.7 88.12,159.94 88.51,164.13 88.89,168.24 89.28,172.27 89.66,176.2 90.05,180 90.43,183.66 90.82,187.18 91.2,190.55 91.59,193.77 91.97,196.83 92.36,199.7 92.75,202.38 93.13,204.9 93.52,207.25 93.9,209.43 94.29,211.45 94.67,213.3 95.06,214.97 95.44,216.49 95.83,217.87 96.21,219.12 96.6,220.23 96.98,221.22 97.37,222.08 97.75,222.82 98.14,223.46 98.52,224.01 98.91,224.47 99.29,224.85 99.68,225.15 100.06,225.37 100.45,225.52 100.83,225.61 101.22,225.66 101.6,225.65 101.99,225.59 102.37,225.49 102.76,225.35 103.14,225.18 103.53,224.98 103.91,224.75 104.3,224.5 104.68,224.23 105.07,223.93 105.45,223.62 105.84,223.3 106.22,222.96 106.61,222.61 106.99,222.25 107.38,221.88 107.76,221.5 108.15,221.12 108.53,220.73 108.92,220.33 109.3,219.94 109.69,219.54 110.07,219.14 110.46,218.75 110.84,218.35 111.23,217.96 111.61,217.58 112,217.2 112.38,216.83 112.77,216.46 113.15,216.1 113.54,215.75 113.92,215.41 114.31,215.07 114.69,214.74 115.08,214.41 115.46,214.09 115.85,213.77 116.23,213.45 116.62,213.13 117,212.81 117.39,212.49 117.77,212.17 118.16,211.85 118.54,211.52 118.93,211.2 119.31,210.87 119.7,210.54 120.08,210.21 120.47,209.89 120.85,209.56 121.24,209.24 121.62,208.92 122.01,208.6 122.39,208.29 122.78,207.99 123.16,207.68 123.55,207.39 123.93,207.09 124.32,206.8 124.7,206.51 125.09,206.21 125.47,205.91 125.86,205.6 126.24,205.29 126.63,204.96 127.01,204.62 127.4,204.25 127.78,203.87 128.17,203.47 128.55,203.04 128.94,202.58 129.32,202.1 129.71,201.58 130.09,201.04 130.48,200.47 130.86,199.88 131.25,199.26 131.63,198.62 132.02,197.96 132.4,197.27 132.79,196.58 133.17,195.87 133.56,195.15 133.94,194.42 134.33,193.68 134.71,192.94 135.1,192.19 135.48,191.44 135.87,190.69 136.25,189.93 136.64,189.17 137.02,188.4 137.41,187.63 137.79,186.85 138.18,186.06 138.56,185.26 138.95,184.45 139.33,183.62 139.72,182.77 140.1,181.91 140.49,181.03 140.87,180.14 141.26,179.23 141.64,178.3 142.03,177.35 142.42,176.4 142.8,175.43 143.19,174.45 143.57,173.47 143.96,172.47 144.34,171.48 144.73,170.48 145.11,169.48 145.5,168.49 145.88,167.5 146.27,166.51 146.65,165.53 147.04,164.55 147.42,163.59 147.81,162.63 148.19,161.69 148.58,160.75 148.96,159.82 149.35,158.91 149.73,158.01 150.12,157.13 150.5,156.25 150.89,155.39 151.27,154.55 151.66,153.73 152.04,152.92 152.43,152.13 152.81,151.35 153.2,150.59 153.58,149.84 153.97,149.12 154.35,148.4 154.74,147.7 155.12,147.01 155.51,146.33 155.89,145.66 156.28,145 156.66,144.35 157.05,143.71 157.43,143.07 157.82,142.44 158.2,141.82 158.59,141.2 158.97,140.59 159.36,139.98 159.74,139.38 160.13,138.79 160.51,138.21 160.9,137.63 161.28,137.06 161.67,136.5 162.05,135.95 162.44,135.4 162.82,134.86 163.21,134.32 163.59,133.79 163.98,133.27 164.36,132.74 164.75,132.21 165.13,131.68 165.52,131.15 165.9,130.62 166.29,130.08 166.67,129.54 167.06,128.99 167.44,128.44 167.83,127.88 168.21,127.32 168.6,126.76 168.98,126.19 169.37,125.63 169.75,125.07 170.14,124.51 170.52,123.96 170.91,123.42 171.29,122.88 171.68,122.35 172.06,121.83 172.45,121.32 172.83,120.82 173.22,120.33 173.6,119.84 173.99,119.37 174.37,118.9 174.76,118.43 175.14,117.97 175.53,117.51 175.91,117.05 176.3,116.6 176.68,116.14 177.07,115.68 177.45,115.22 177.84,114.76 178.22,114.3 178.61,113.83 178.99,113.36 179.38,112.89 179.76,112.43 180.15,111.96 180.53,111.49 180.92,111.02 181.3,110.56 181.69,110.1 182.07,109.65 182.46,109.2 182.84,108.76 183.23,108.32 183.61,107.88 184,107.46 184.38,107.03 184.77,106.61 185.15,106.2 185.54,105.79 185.92,105.38 186.31,104.97 186.69,104.55 187.08,104.14 187.46,103.73 187.85,103.31 188.23,102.88 188.62,102.45 189,102.01 189.39,101.56 189.77,101.1 190.16,100.63 190.54,100.15 190.93,99.66 191.31,99.16 191.7,98.65 192.09,98.13 192.47,97.6 192.86,97.07 193.24,96.53 193.63,95.99 194.01,95.45 194.4,94.91 194.78,94.38 195.17,93.86 195.55,93.34 195.94,92.85 196.32,92.36 196.71,91.9 197.09,91.46 197.48,91.03 197.86,90.63 198.25,90.26 198.63,89.91 199.02,89.58 199.4,89.28 199.79,89 200.17,88.74 200.56,88.51 200.94,88.29 201.33,88.09 201.71,87.9 202.1,87.72 202.48,87.55 202.87,87.39 203.25,87.24 203.64,87.09 204.02,86.94 204.41,86.78 204.79,86.63 205.18,86.47 205.56,86.31 205.95,86.15 206.33,85.98 206.72,85.8 207.1,85.63 207.49,85.45 207.87,85.26 208.26,85.07 208.64,84.88 209.03,84.69 209.41,84.5 209.8,84.3 210.18,84.11 210.57,83.91 210.95,83.72 211.34,83.53 211.72,83.34 212.11,83.15 212.49,82.96 212.88,82.77 213.26,82.58 213.65,82.39 214.03,82.21 214.42,82.02 214.8,81.83 215.19,81.65 215.57,81.46 215.96,81.27 216.34,81.08 216.73,80.89 217.11,80.69 217.5,80.5 217.88,80.3 218.27,80.09 218.65,79.89 219.04,79.68 219.42,79.47 219.81,79.25 220.19,79.03 220.58,78.8 220.96,78.57 221.35,78.34 221.73,78.11 222.12,77.87 222.5,77.63 222.89,77.39 223.27,77.15 223.66,76.9 224.04,76.66 224.43,76.42 224.81,76.18 225.2,75.95 225.58,75.72 225.97,75.49 226.35,75.26 226.74,75.04 227.12,74.83 227.51,74.62 227.89,74.42 228.28,74.23 228.66,74.04 229.05,73.85 229.43,73.67 229.82,73.5 230.2,73.33 230.59,73.16 230.97,73 231.36,72.84 231.74,72.69 232.13,72.53 232.51,72.38 232.9,72.23 233.28,72.08 233.67,71.93 234.05,71.77 234.44,71.62 234.82,71.47 235.21,71.31 235.59,71.15 235.98,71 236.36,70.83 236.75,70.67 237.13,70.51 237.52,70.34 237.9,70.17 238.29,69.99 238.67,69.82 239.06,69.64 239.44,69.46 239.83,69.27 240.21,69.08 240.6,68.89 240.98,68.69 241.37,68.48 241.76,68.27 242.14,68.05 242.53,67.83 242.91,67.6 243.3,67.36 243.68,67.11 244.07,66.85 244.45,66.59 244.84,66.32 245.22,66.05 245.61,65.76 245.99,65.48 246.38,65.18 246.76,64.89 247.15,64.59 247.53,64.3 247.92,64.01 248.3,63.72 248.69,63.43 249.07,63.15 249.46,62.88 249.84,62.62 250.23,62.38 250.61,62.14 251,61.91 251.38,61.7 251.77,61.51 252.15,61.33 252.54,61.16 252.92,61.01 253.31,60.87 253.69,60.74 254.08,60.63 254.46,60.53 254.85,60.44 255.23,60.36 255.62,60.3 256,60.24 256.39,60.19 256.77,60.14 257.16,60.11 257.54,60.08 257.93,60.05 258.31,60.03 258.7,60.01 259.08,60 259.47,59.99 259.85,59.98 260.24,59.97 260.62,59.97 261.01,59.96 261.39,59.96 261.78,59.95" stroke-dasharray="none" stroke="rgb(55,126,184)" stroke-width="0.75" opacity="1" stroke-opacity="1" fill="none"/>
          </g>
          <g id="Fig:densplot_01.xyplot.lines.group.11.panel.1.1.1">
            <polyline id="Fig:densplot_01.xyplot.lines.group.11.panel.1.1.1.1" points="65.42,59.96 65.8,59.97 66.18,59.97 66.57,59.98 66.95,59.99 67.34,60.01 67.72,60.03 68.1,60.05 68.49,60.08 68.87,60.11 69.26,60.15 69.64,60.2 70.02,60.26 70.41,60.34 70.79,60.43 71.18,60.54 71.56,60.67 71.94,60.82 72.33,61 72.71,61.21 73.1,61.46 73.48,61.75 73.86,62.09 74.25,62.48 74.63,62.92 75.02,63.43 75.4,64 75.78,64.67 76.17,65.43 76.55,66.27 76.94,67.22 77.32,68.28 77.7,69.45 78.09,70.76 78.47,72.22 78.86,73.82 79.24,75.57 79.62,77.47 80.01,79.54 80.39,81.79 80.78,84.23 81.16,86.85 81.54,89.64 81.93,92.61 82.31,95.75 82.7,99.07 83.08,102.59 83.46,106.27 83.85,110.09 84.23,114.06 84.62,118.16 85,122.37 85.38,126.7 85.77,131.11 86.15,135.58 86.54,140.1 86.92,144.63 87.3,149.17 87.69,153.7 88.07,158.18 88.46,162.6 88.84,166.94 89.22,171.18 89.61,175.32 89.99,179.32 90.38,183.16 90.76,186.84 91.14,190.35 91.53,193.7 91.91,196.86 92.3,199.84 92.68,202.62 93.06,205.18 93.45,207.57 93.83,209.76 94.22,211.78 94.6,213.62 94.98,215.28 95.37,216.75 95.75,218.06 96.14,219.22 96.52,220.24 96.9,221.13 97.29,221.89 97.67,222.51 98.06,223.02 98.44,223.43 98.82,223.75 99.21,223.99 99.59,224.15 99.98,224.24 100.36,224.26 100.74,224.24 101.13,224.17 101.51,224.06 101.9,223.92 102.28,223.76 102.67,223.57 103.05,223.37 103.43,223.16 103.82,222.94 104.2,222.72 104.59,222.5 104.97,222.28 105.35,222.07 105.74,221.86 106.12,221.65 106.51,221.46 106.89,221.27 107.27,221.08 107.66,220.91 108.04,220.75 108.43,220.59 108.81,220.44 109.19,220.3 109.58,220.16 109.96,220.03 110.35,219.91 110.73,219.79 111.11,219.67 111.5,219.56 111.88,219.45 112.27,219.34 112.65,219.24 113.03,219.13 113.42,219.01 113.8,218.89 114.19,218.76 114.57,218.62 114.95,218.47 115.34,218.31 115.72,218.13 116.11,217.93 116.49,217.72 116.87,217.49 117.26,217.24 117.64,216.97 118.03,216.68 118.41,216.37 118.79,216.04 119.18,215.7 119.56,215.34 119.95,214.96 120.33,214.57 120.71,214.17 121.1,213.75 121.48,213.33 121.87,212.89 122.25,212.44 122.63,211.99 123.02,211.52 123.4,211.05 123.79,210.57 124.17,210.09 124.55,209.59 124.94,209.09 125.32,208.58 125.71,208.06 126.09,207.53 126.47,206.99 126.86,206.44 127.24,205.88 127.63,205.31 128.01,204.73 128.39,204.13 128.78,203.53 129.16,202.91 129.55,202.28 129.93,201.64 130.31,200.98 130.7,200.32 131.08,199.64 131.47,198.95 131.85,198.25 132.23,197.54 132.62,196.82 133,196.09 133.39,195.36 133.77,194.61 134.15,193.86 134.54,193.1 134.92,192.33 135.31,191.56 135.69,190.78 136.07,190 136.46,189.22 136.84,188.43 137.23,187.64 137.61,186.84 137.99,186.04 138.38,185.23 138.76,184.42 139.15,183.61 139.53,182.79 139.91,181.96 140.3,181.13 140.68,180.29 141.07,179.44 141.45,178.59 141.83,177.73 142.22,176.86 142.6,175.98 142.99,175.09 143.37,174.2 143.75,173.3 144.14,172.39 144.52,171.47 144.91,170.55 145.29,169.62 145.67,168.68 146.06,167.74 146.44,166.8 146.83,165.85 147.21,164.9 147.59,163.95 147.98,163.01 148.36,162.06 148.75,161.12 149.13,160.18 149.51,159.25 149.9,158.32 150.28,157.4 150.67,156.49 151.05,155.58 151.43,154.69 151.82,153.8 152.2,152.93 152.59,152.06 152.97,151.21 153.35,150.36 153.74,149.52 154.12,148.7 154.51,147.89 154.89,147.08 155.27,146.29 155.66,145.51 156.04,144.74 156.43,143.98 156.81,143.24 157.19,142.52 157.58,141.8 157.96,141.1 158.35,140.42 158.73,139.76 159.11,139.11 159.5,138.48 159.88,137.87 160.27,137.28 160.65,136.71 161.03,136.15 161.42,135.61 161.8,135.08 162.19,134.57 162.57,134.08 162.95,133.59 163.34,133.12 163.72,132.65 164.11,132.19 164.49,131.74 164.87,131.3 165.26,130.86 165.64,130.42 166.03,129.98 166.41,129.55 166.79,129.12 167.18,128.69 167.56,128.26 167.95,127.83 168.33,127.4 168.71,126.97 169.1,126.54 169.48,126.1 169.87,125.67 170.25,125.23 170.63,124.78 171.02,124.33 171.4,123.87 171.79,123.41 172.17,122.93 172.55,122.44 172.94,121.95 173.32,121.43 173.71,120.91 174.09,120.37 174.47,119.81 174.86,119.24 175.24,118.66 175.63,118.07 176.01,117.46 176.39,116.84 176.78,116.22 177.16,115.59 177.55,114.96 177.93,114.33 178.31,113.7 178.7,113.07 179.08,112.46 179.47,111.84 179.85,111.24 180.23,110.66 180.62,110.08 181,109.52 181.39,108.98 181.77,108.45 182.15,107.94 182.54,107.44 182.92,106.96 183.31,106.49 183.69,106.04 184.07,105.6 184.46,105.18 184.84,104.76 185.23,104.36 185.61,103.96 185.99,103.58 186.38,103.21 186.76,102.84 187.15,102.48 187.53,102.13 187.91,101.78 188.3,101.44 188.68,101.1 189.07,100.76 189.45,100.43 189.83,100.1 190.22,99.78 190.6,99.45 190.99,99.13 191.37,98.81 191.75,98.48 192.14,98.16 192.52,97.83 192.91,97.5 193.29,97.17 193.67,96.84 194.06,96.5 194.44,96.16 194.83,95.81 195.21,95.46 195.59,95.11 195.98,94.75 196.36,94.39 196.75,94.03 197.13,93.66 197.51,93.29 197.9,92.92 198.28,92.55 198.67,92.17 199.05,91.79 199.43,91.41 199.82,91.03 200.2,90.65 200.59,90.27 200.97,89.89 201.35,89.51 201.74,89.13 202.12,88.75 202.51,88.38 202.89,88.01 203.27,87.64 203.66,87.28 204.04,86.92 204.43,86.57 204.81,86.23 205.19,85.89 205.58,85.57 205.96,85.26 206.35,84.96 206.73,84.68 207.11,84.4 207.5,84.15 207.88,83.9 208.27,83.68 208.65,83.46 209.03,83.27 209.42,83.08 209.8,82.91 210.19,82.76 210.57,82.62 210.95,82.49 211.34,82.38 211.72,82.27 212.11,82.17 212.49,82.07 212.87,81.98 213.26,81.9 213.64,81.81 214.03,81.72 214.41,81.63 214.79,81.54 215.18,81.44 215.56,81.33 215.95,81.21 216.33,81.08 216.71,80.94 217.1,80.79 217.48,80.63 217.87,80.45 218.25,80.26 218.63,80.06 219.02,79.85 219.4,79.63 219.79,79.39 220.17,79.15 220.55,78.9 220.94,78.64 221.32,78.38 221.71,78.12 222.09,77.85 222.47,77.58 222.86,77.32 223.24,77.06 223.63,76.8 224.01,76.55 224.39,76.3 224.78,76.06 225.16,75.83 225.55,75.6 225.93,75.38 226.31,75.18 226.7,74.98 227.08,74.78 227.47,74.6 227.85,74.42 228.23,74.24 228.62,74.08 229,73.91 229.39,73.75 229.77,73.6 230.15,73.44 230.54,73.29 230.92,73.14 231.31,72.99 231.69,72.83 232.07,72.68 232.46,72.53 232.84,72.38 233.23,72.22 233.61,72.07 233.99,71.91 234.38,71.75 234.76,71.6 235.15,71.44 235.53,71.28 235.91,71.12 236.3,70.96 236.68,70.8 237.07,70.64 237.45,70.47 237.83,70.31 238.22,70.14 238.6,69.97 238.99,69.8 239.37,69.63 239.75,69.45 240.14,69.27 240.52,69.08 240.91,68.89 241.29,68.69 241.67,68.48 242.06,68.27 242.44,68.05 242.83,67.82 243.21,67.59 243.59,67.35 243.98,67.09 244.36,66.84 244.75,66.57 245.13,66.3 245.51,66.02 245.9,65.74 246.28,65.45 246.67,65.17 247.05,64.88 247.43,64.58 247.82,64.3 248.2,64.01 248.59,63.73 248.97,63.45 249.35,63.18 249.74,62.91 250.12,62.66 250.51,62.42 250.89,62.18 251.27,61.96 251.66,61.75 252.04,61.56 252.43,61.38 252.81,61.21 253.19,61.06 253.58,60.92 253.96,60.79 254.35,60.67 254.73,60.57 255.11,60.48 255.5,60.4 255.88,60.33 256.27,60.27 256.65,60.21 257.03,60.17 257.42,60.13 257.8,60.09 258.19,60.07 258.57,60.04 258.95,60.02 259.34,60.01 259.72,59.99 260.11,59.98 260.49,59.98 260.87,59.97 261.26,59.96 261.64,59.96" stroke-dasharray="none" stroke="rgb(55,126,184)" stroke-width="0.75" opacity="1" stroke-opacity="1" fill="none"/>
          </g>
          <g id="Fig:densplot_01.xyplot.lines.group.12.panel.1.1.1">
            <polyline id="Fig:densplot_01.xyplot.lines.group.12.panel.1.1.1.1" points="65.02,59.96 65.4,59.97 65.79,59.97 66.17,59.98 66.56,59.99 66.94,60 67.33,60.02 67.71,60.04 68.1,60.07 68.48,60.1 68.87,60.14 69.25,60.19 69.64,60.24 70.02,60.31 70.41,60.4 70.79,60.5 71.18,60.62 71.56,60.75 71.94,60.92 72.33,61.11 72.71,61.34 73.1,61.6 73.48,61.91 73.87,62.26 74.25,62.65 74.64,63.11 75.02,63.64 75.41,64.24 75.79,64.91 76.18,65.67 76.56,66.51 76.95,67.44 77.33,68.51 77.72,69.68 78.1,70.98 78.49,72.4 78.87,73.95 79.26,75.64 79.64,77.5 80.03,79.51 80.41,81.69 80.8,84.02 81.18,86.5 81.57,89.15 81.95,91.97 82.34,94.97 82.72,98.13 83.1,101.44 83.49,104.89 83.87,108.48 84.26,112.2 84.64,116.06 85.03,120.02 85.41,124.08 85.8,128.22 86.18,132.42 86.57,136.68 86.95,140.97 87.34,145.28 87.72,149.59 88.11,153.88 88.49,158.14 88.88,162.35 89.26,166.5 89.65,170.56 90.03,174.52 90.42,178.38 90.8,182.12 91.19,185.73 91.57,189.21 91.96,192.53 92.34,195.68 92.73,198.68 93.11,201.51 93.5,204.18 93.88,206.69 94.26,209.03 94.65,211.17 95.03,213.16 95.42,214.99 95.8,216.67 96.19,218.21 96.57,219.6 96.96,220.84 97.34,221.93 97.73,222.91 98.11,223.78 98.5,224.54 98.88,225.19 99.27,225.75 99.65,226.2 100.04,226.57 100.42,226.87 100.81,227.09 101.19,227.25 101.58,227.35 101.96,227.38 102.35,227.36 102.73,227.29 103.12,227.18 103.5,227.04 103.89,226.86 104.27,226.65 104.65,226.42 105.04,226.17 105.42,225.91 105.81,225.63 106.19,225.36 106.58,225.08 106.96,224.8 107.35,224.54 107.73,224.28 108.12,224.04 108.5,223.81 108.89,223.6 109.27,223.4 109.66,223.23 110.04,223.06 110.43,222.92 110.81,222.78 111.2,222.65 111.58,222.53 111.97,222.42 112.35,222.3 112.74,222.18 113.12,222.05 113.51,221.91 113.89,221.75 114.28,221.58 114.66,221.38 115.05,221.15 115.43,220.91 115.81,220.63 116.2,220.33 116.58,220 116.97,219.64 117.35,219.26 117.74,218.84 118.12,218.41 118.51,217.95 118.89,217.48 119.28,216.98 119.66,216.47 120.05,215.95 120.43,215.42 120.82,214.88 121.2,214.33 121.59,213.77 121.97,213.21 122.36,212.65 122.74,212.08 123.13,211.5 123.51,210.92 123.9,210.34 124.28,209.75 124.67,209.16 125.05,208.55 125.44,207.95 125.82,207.33 126.21,206.71 126.59,206.08 126.97,205.44 127.36,204.79 127.74,204.14 128.13,203.49 128.51,202.83 128.9,202.16 129.28,201.49 129.67,200.83 130.05,200.16 130.44,199.49 130.82,198.83 131.21,198.17 131.59,197.5 131.98,196.84 132.36,196.18 132.75,195.52 133.13,194.85 133.52,194.18 133.9,193.5 134.29,192.82 134.67,192.12 135.06,191.41 135.44,190.69 135.83,189.95 136.21,189.2 136.6,188.42 136.98,187.63 137.37,186.82 137.75,186 138.13,185.16 138.52,184.31 138.9,183.44 139.29,182.57 139.67,181.68 140.06,180.8 140.44,179.91 140.83,179.02 141.21,178.13 141.6,177.24 141.98,176.36 142.37,175.48 142.75,174.6 143.14,173.74 143.52,172.87 143.91,172.01 144.29,171.16 144.68,170.31 145.06,169.45 145.45,168.6 145.83,167.75 146.22,166.9 146.6,166.05 146.99,165.19 147.37,164.33 147.76,163.47 148.14,162.61 148.52,161.75 148.91,160.88 149.29,160.02 149.68,159.15 150.06,158.29 150.45,157.43 150.83,156.57 151.22,155.71 151.6,154.86 151.99,154.01 152.37,153.16 152.76,152.32 153.14,151.48 153.53,150.64 153.91,149.81 154.3,148.98 154.68,148.16 155.07,147.33 155.45,146.52 155.84,145.7 156.22,144.9 156.61,144.1 156.99,143.32 157.38,142.54 157.76,141.78 158.15,141.03 158.53,140.3 158.92,139.58 159.3,138.89 159.68,138.22 160.07,137.57 160.45,136.95 160.84,136.34 161.22,135.77 161.61,135.22 161.99,134.69 162.38,134.18 162.76,133.69 163.15,133.21 163.53,132.76 163.92,132.32 164.3,131.89 164.69,131.46 165.07,131.04 165.46,130.63 165.84,130.21 166.23,129.8 166.61,129.38 167,128.95 167.38,128.52 167.77,128.08 168.15,127.63 168.54,127.18 168.92,126.71 169.31,126.24 169.69,125.76 170.08,125.28 170.46,124.79 170.84,124.29 171.23,123.8 171.61,123.3 172,122.81 172.38,122.32 172.77,121.83 173.15,121.34 173.54,120.86 173.92,120.39 174.31,119.92 174.69,119.45 175.08,118.99 175.46,118.53 175.85,118.07 176.23,117.62 176.62,117.16 177,116.71 177.39,116.25 177.77,115.78 178.16,115.32 178.54,114.84 178.93,114.36 179.31,113.87 179.7,113.37 180.08,112.87 180.47,112.36 180.85,111.84 181.24,111.31 181.62,110.78 182,110.24 182.39,109.71 182.77,109.17 183.16,108.63 183.54,108.09 183.93,107.55 184.31,107.02 184.7,106.5 185.08,105.98 185.47,105.46 185.85,104.96 186.24,104.46 186.62,103.96 187.01,103.48 187.39,103 187.78,102.53 188.16,102.07 188.55,101.61 188.93,101.16 189.32,100.71 189.7,100.27 190.09,99.82 190.47,99.38 190.86,98.95 191.24,98.51 191.63,98.07 192.01,97.64 192.39,97.2 192.78,96.77 193.16,96.34 193.55,95.91 193.93,95.48 194.32,95.06 194.7,94.64 195.09,94.22 195.47,93.81 195.86,93.41 196.24,93.01 196.63,92.62 197.01,92.23 197.4,91.85 197.78,91.48 198.17,91.11 198.55,90.76 198.94,90.41 199.32,90.07 199.71,89.73 200.09,89.41 200.48,89.08 200.86,88.77 201.25,88.47 201.63,88.17 202.02,87.87 202.4,87.59 202.79,87.31 203.17,87.03 203.55,86.77 203.94,86.51 204.32,86.26 204.71,86.02 205.09,85.79 205.48,85.56 205.86,85.35 206.25,85.15 206.63,84.96 207.02,84.77 207.4,84.6 207.79,84.44 208.17,84.29 208.56,84.15 208.94,84.02 209.33,83.89 209.71,83.78 210.1,83.67 210.48,83.56 210.87,83.45 211.25,83.35 211.64,83.25 212.02,83.14 212.41,83.03 212.79,82.92 213.18,82.79 213.56,82.66 213.95,82.52 214.33,82.36 214.71,82.2 215.1,82.02 215.48,81.83 215.87,81.62 216.25,81.4 216.64,81.16 217.02,80.92 217.41,80.66 217.79,80.39 218.18,80.11 218.56,79.82 218.95,79.53 219.33,79.24 219.72,78.94 220.1,78.64 220.49,78.34 220.87,78.04 221.26,77.75 221.64,77.47 222.03,77.19 222.41,76.92 222.8,76.66 223.18,76.41 223.57,76.17 223.95,75.94 224.34,75.73 224.72,75.52 225.11,75.32 225.49,75.14 225.87,74.96 226.26,74.79 226.64,74.63 227.03,74.48 227.41,74.32 227.8,74.18 228.18,74.03 228.57,73.88 228.95,73.74 229.34,73.59 229.72,73.44 230.11,73.29 230.49,73.14 230.88,72.98 231.26,72.82 231.65,72.65 232.03,72.48 232.42,72.31 232.8,72.14 233.19,71.96 233.57,71.78 233.96,71.6 234.34,71.41 234.73,71.23 235.11,71.04 235.5,70.86 235.88,70.68 236.26,70.49 236.65,70.31 237.03,70.13 237.42,69.95 237.8,69.77 238.19,69.59 238.57,69.42 238.96,69.24 239.34,69.06 239.73,68.89 240.11,68.72 240.5,68.54 240.88,68.37 241.27,68.19 241.65,68.01 242.04,67.83 242.42,67.65 242.81,67.46 243.19,67.26 243.58,67.07 243.96,66.86 244.35,66.65 244.73,66.44 245.12,66.21 245.5,65.98 245.89,65.74 246.27,65.5 246.66,65.25 247.04,64.99 247.42,64.73 247.81,64.46 248.19,64.19 248.58,63.93 248.96,63.66 249.35,63.39 249.73,63.13 250.12,62.88 250.5,62.63 250.89,62.39 251.27,62.16 251.66,61.94 252.04,61.73 252.43,61.54 252.81,61.35 253.2,61.19 253.58,61.03 253.97,60.89 254.35,60.76 254.74,60.65 255.12,60.55 255.51,60.46 255.89,60.38 256.28,60.31 256.66,60.25 257.05,60.19 257.43,60.15 257.82,60.11 258.2,60.08 258.58,60.05 258.97,60.03 259.35,60.01 259.74,60 260.12,59.99 260.51,59.98 260.89,59.97 261.28,59.97 261.66,59.96" stroke-dasharray="none" stroke="rgb(55,126,184)" stroke-width="0.75" opacity="1" stroke-opacity="1" fill="none"/>
          </g>
        </g>
        <g id="Fig:densplot_01.panel.1.1.off.vp.2">
          <g id="Fig:densplot_01.border.panel.1.1.1">
            <rect id="Fig:densplot_01.border.panel.1.1.1.1" x="50.8" y="48.19" width="225.2" height="191.62" transform="" stroke="rgb(0,0,0)" stroke-dasharray="none" stroke-width="0.75" opacity="1" fill="none" stroke-opacity="1" fill-opacity="0"/>
          </g>
        </g>
        <g id="Fig:densplot_01..1"/>
      </g>
    </g>
  </g>
</svg>